<svg xmlns="http://www.w3.org/2000/svg" viewBox="0 0 625.88 246.72"><defs><style>.cls-1{fill:#3a4143;}.cls-2{fill:#fcee21;stroke-width:4px;}.cls-2,.cls-3{stroke:#201600;stroke-miterlimit:10;}</style></defs><title>beРесурс 8</title><g id="Слой_2" data-name="Слой 2"><g id="Слой_3" data-name="Слой 3"><path class="cls-1" d="M153.47,15.83,15.4,153.9c-4.07,4.06,2.32,10.31,6.39,6.23L159.86,22.06c4.07-4.06-2.32-10.31-6.39-6.23Z"/><path class="cls-1" d="M148.68,41.07,15.4,174.37c-4.07,4.06,2.32,10.3,6.39,6.23L155.08,47.31c4.06-4.07-2.32-10.31-6.4-6.24Z"/><path class="cls-1" d="M197.7,31.39,25,204.19c-4.06,4.07,2.32,10.31,6.4,6.24L204.09,37.63c4.07-4.06-2.32-10.31-6.39-6.24Z"/><path class="cls-1" d="M231.34,19.83,74.4,176.76,30.06,221.1c-4.06,4.06,2.32,10.31,6.4,6.23L193.39,70.4l44.34-44.34c4.06-4.06-2.32-10.31-6.39-6.23Z"/><path class="cls-1" d="M255.8,15.83,84.86,186.77l-48,48c-4.07,4.07,2.32,10.31,6.39,6.24L214.16,70.09l48-48c4.06-4.06-2.32-10.31-6.4-6.23Z"/><path class="cls-1" d="M208.9,1.33,59.75,150.48,17.53,192.7c-4.06,4.06,2.32,10.3,6.4,6.23L173.08,49.77,215.3,7.56c4.06-4.06-2.32-10.31-6.4-6.23Z"/><path class="cls-1" d="M258.73,33.37l-144,144L73.27,218.83c-4.06,4.06,2.32,10.31,6.39,6.23l144-144L265.12,39.6c4.07-4.06-2.32-10.31-6.39-6.23Z"/><path class="cls-1" d="M303.21,9.54,132.36,180.15l-48,47.94c-4.06,4.06,2.32,10.31,6.4,6.24L261.59,63.72l48-47.94c4.07-4.06-2.32-10.31-6.39-6.24Z"/><path class="cls-1" d="M290.86,42.26l-179,178.84c-4.07,4.06,2.32,10.31,6.39,6.23l179-178.84c4.07-4.06-2.32-10.3-6.39-6.23Z"/><path class="cls-1" d="M330,44,153.47,220.5c-4.07,4.06,2.32,10.31,6.39,6.23L336.41,50.19c4.06-4.07-2.32-10.31-6.4-6.24Z"/><path class="cls-1" d="M329.47,24.12,164.05,189.41,117.4,236c-4.07,4.07,2.32,10.31,6.39,6.24L289.21,77l46.65-46.63c4.07-4.06-2.32-10.3-6.39-6.23Z"/><path class="cls-1" d="M87.93,40.32,7.77,120.56c-4.06,4.07,2.32,10.31,6.4,6.24L94.32,46.55c4.06-4.06-2.32-10.31-6.39-6.23Z"/><path class="cls-1" d="M84.35,24,15.4,92.69c-4.07,4.06,2.31,10.3,6.39,6.24l69-68.69c4.07-4.06-2.32-10.3-6.4-6.24Z"/><path class="cls-1" d="M108.34,40.32,1.3,147.53c-4.06,4.07,2.32,10.32,6.39,6.24l107-107.22c4.06-4.06-2.32-10.31-6.39-6.23Z"/><path class="cls-1" d="M45.65,40.32l-29,29.41c-4,4.09,2.35,10.34,6.39,6.23l29-29.41c4-4.09-2.35-10.34-6.4-6.23Z"/><path class="cls-1" d="M378.79,36.2,229.05,185.82l-42.38,42.34c-4.06,4.06,2.32,10.31,6.4,6.23L342.8,84.78l42.38-42.34c4.06-4.06-2.32-10.31-6.39-6.24Z"/><path class="cls-1" d="M376.41,18l-168.88,169L159.68,234.8c-4.06,4.07,2.32,10.31,6.39,6.24L335,72.07,382.8,24.19c4.06-4.06-2.32-10.31-6.39-6.23Z"/><path class="cls-1" d="M454.48,21.83,287.38,188.92l-47.24,47.24c-4.06,4.06,2.33,10.31,6.4,6.23L413.63,75.3l47.24-47.24c4.07-4.06-2.32-10.31-6.39-6.23Z"/><path class="cls-1" d="M409.1,26.39,253.31,182,208.9,226.38c-4.06,4.06,2.32,10.3,6.4,6.23L371.09,77,415.5,32.62c4.06-4.06-2.32-10.31-6.4-6.23Z"/><path class="cls-1" d="M444.06,52.68,275.7,221.1c-4.06,4.06,2.32,10.31,6.39,6.23L450.46,58.91c4.06-4.06-2.32-10.31-6.4-6.23Z"/><path class="cls-1" d="M483.75,33.49l-149.95,150-42.94,42.94c-4.06,4.06,2.32,10.31,6.39,6.23l150-149.94,42.94-42.94c4.06-4.07-2.32-10.31-6.39-6.24Z"/><path class="cls-1" d="M487.56,50.14,318.88,218.83c-4.07,4.06,2.32,10.31,6.39,6.23L494,56.38c4.06-4.07-2.32-10.31-6.4-6.24Z"/><path class="cls-1" d="M447.68,8.16,285.06,170.78l-46.67,46.66c-4.06,4.07,2.32,10.31,6.4,6.24L407.41,61.06l46.66-46.67c4.06-4.06-2.32-10.3-6.39-6.23Z"/><path class="cls-1" d="M582.53,35.83,439.06,179.3l-40.79,40.79c-4.06,4.06,2.32,10.31,6.39,6.23L548.14,82.85l40.79-40.79c4.06-4.06-2.32-10.31-6.4-6.23Z"/><path class="cls-1" d="M532.35,25.83,375,183.2l-45,45c-4.06,4.06,2.32,10.31,6.4,6.23L493.78,77l45-45c4.06-4.06-2.32-10.31-6.39-6.23Z"/><path class="cls-1" d="M537.48,41.16,364.73,213.91c-4.06,4.06,2.32,10.31,6.39,6.23L543.87,47.39c4.07-4.06-2.32-10.3-6.39-6.23Z"/><path class="cls-1" d="M600.68,38.15l-147.4,147.4-41.61,41.61c-4.06,4.06,2.32,10.31,6.39,6.23L565.46,86l41.61-41.61c4.07-4.06-2.32-10.31-6.39-6.23Z"/><path class="cls-1" d="M591.45,8.2,421.13,178.52l-47.86,47.86c-4.06,4.06,2.32,10.31,6.39,6.23L550,62.29l47.86-47.85c4.07-4.07-2.32-10.31-6.39-6.24Z"/><path class="cls-1" d="M600.75,121.16l-118,118c-4.06,4.06,2.32,10.31,6.4,6.23l118-118c4.07-4.07-2.32-10.31-6.39-6.24Z"/><path class="cls-1" d="M590.78,69.73l-159.6,159.6c-4.06,4.06,2.32,10.31,6.39,6.23L597.17,76c4.07-4.06-2.32-10.31-6.39-6.23Z"/><path class="cls-1" d="M618.18,62.89,455,225.84c-4.07,4.06,2.32,10.3,6.39,6.23L624.57,69.13c4.07-4.06-2.32-10.31-6.39-6.24Z"/><path class="cls-1" d="M604.43,97,484,217.44c-4.06,4.07,2.32,10.31,6.39,6.24L610.83,103.25c4.06-4.07-2.32-10.31-6.4-6.24Z"/><path class="cls-1" d="M599.4,143l-84,84c-4.07,4.06,2.32,10.31,6.39,6.24l84-84c4.06-4.07-2.32-10.31-6.39-6.24Z"/><path class="cls-1" d="M605.56,157.28,544,218.83c-4.06,4.06,2.32,10.31,6.4,6.23L612,163.52c4.06-4.07-2.32-10.31-6.4-6.24Z"/><path class="cls-1" d="M591.12,192.19,554,229.33c-4.06,4.06,2.32,10.31,6.4,6.23l37.13-37.13c4.07-4.07-2.32-10.31-6.39-6.24Z"/><path class="cls-1" d="M599.4,204.38l-26,26c-4.07,4.07,2.32,10.31,6.39,6.24l26-26c4.06-4.07-2.32-10.31-6.39-6.24Z"/><rect class="cls-2" x="47.02" y="60.94" width="523.04" height="143.24"/><path class="cls-3" d="M202.38,178.76V86.35h73.93a17.22,17.22,0,0,1,13,5.47,17.67,17.67,0,0,1,5.47,13v18.48a17.87,17.87,0,0,1-2.51,9.31,17.37,17.37,0,0,1,2.51,9.17v18.48a17.51,17.51,0,0,1-5.47,13.16,18.07,18.07,0,0,1-13,5.32Zm64.76-55.44a8.94,8.94,0,0,0,6.51-2.66,9.2,9.2,0,0,0,2.81-6.66,8.51,8.51,0,0,0-2.81-6.5,9,9,0,0,0-6.51-2.81H220.87v18.48h46.27Zm0,37a8.94,8.94,0,0,0,6.51-2.66,9.16,9.16,0,0,0,2.81-6.65,8.54,8.54,0,0,0-2.81-6.51,9.08,9.08,0,0,0-6.51-2.81H220.87v18.48h46.27Z"/><path class="cls-3" d="M331.65,178.76V86.35h92.41v18.49H350.13v18.48h55.44V141.8H350.13v18.48h73.93v18.48Z"/></g></g></svg>