<?xml version="1.0" encoding="utf-8"?>
<!-- Generator: Adobe Illustrator 22.0.1, SVG Export Plug-In . SVG Version: 6.00 Build 0)  -->
<svg version="1.1" id="Слой_1" xmlns="http://www.w3.org/2000/svg" xmlns:xlink="http://www.w3.org/1999/xlink" x="0px" y="0px"
	 viewBox="0 0 647 112.8" style="enable-background:new 0 0 647 112.8;" xml:space="preserve">
<style type="text/css">
	.st0{fill:#FCEE21;stroke:#000000;stroke-width:4;stroke-miterlimit:10;}
</style>
<g>
	<path d="M192,92V22h14v28h42V22h14v70h-14V64h-42v28H192z"/>
	<path d="M262,92l35-70l35,70h-14l-3.5-7h-35l-3.5,7H262z M307.5,71L297,50l-10.5,21H307.5z"/>
	<path d="M332,92V22h56c3.9,0,7.1,1.4,9.8,4.2c2.8,2.8,4.2,6.1,4.2,9.8v14c0,3.9-1.4,7.3-4.2,10c-2.8,2.7-6.1,4-9.8,4l28,28h-21
		l-42-42h28c1.9,0,3.5-0.7,4.9-2c1.4-1.4,2.1-3.1,2.1-5c0-1.9-0.7-3.5-2.1-4.9c-1.4-1.4-3-2.1-4.9-2.1h-35v56H332z"/>
	<path d="M409,92V22h56c3.9,0,7.1,1.4,9.8,4.2c2.8,2.8,4.2,6.1,4.2,9.8v42c0,3.9-1.4,7.3-4.2,10c-2.8,2.7-6.1,4-9.8,4H409z M458,78
		c1.9,0,3.5-0.7,4.9-2c1.4-1.4,2.1-3.1,2.1-5V43c0-1.9-0.7-3.5-2.1-4.9c-1.4-1.4-3-2.1-4.9-2.1h-35v42H458z"/>
	<path d="M486,92V22h70v14h-56v14h42v14h-42v14h56v14H486z"/>
	<path d="M563,92V22h56c3.9,0,7.1,1.4,9.8,4.2c2.8,2.8,4.2,6.1,4.2,9.8v14c0,3.9-1.4,7.3-4.2,10c-2.8,2.7-6.1,4-9.8,4l28,28h-21
		l-42-42h28c1.9,0,3.5-0.7,4.9-2c1.4-1.4,2.1-3.1,2.1-5c0-1.9-0.7-3.5-2.1-4.9c-1.4-1.4-3-2.1-4.9-2.1h-35v56H563z"/>
</g>
<rect x="2" y="2" class="st0" width="173" height="108.8"/>
<g>
	<path d="M26,88V25.5h50c3.5,0,6.4,1.2,8.8,3.7c2.5,2.5,3.7,5.4,3.7,8.8v12.5c0,2.3-0.6,4.5-1.7,6.3c1.1,1.8,1.7,3.9,1.7,6.2v12.5
		c0,3.5-1.2,6.5-3.7,8.9C82.3,86.8,79.4,88,76,88H26z M69.8,50.5c1.7,0,3.2-0.6,4.4-1.8c1.2-1.2,1.9-2.7,1.9-4.5
		c0-1.7-0.6-3.2-1.9-4.4c-1.2-1.2-2.7-1.9-4.4-1.9H38.5v12.5H69.8z M69.8,75.5c1.7,0,3.2-0.6,4.4-1.8c1.2-1.2,1.9-2.7,1.9-4.5
		c0-1.7-0.6-3.2-1.9-4.4c-1.2-1.2-2.7-1.9-4.4-1.9H38.5v12.5H69.8z"/>
	<path d="M94.8,88V25.5h62.5V38h-50v12.5h37.5V63h-37.5v12.5h50V88H94.8z"/>
</g>
</svg>
