<svg xmlns="http://www.w3.org/2000/svg" viewBox="0 0 362 554.67">
    <defs>
        <style>
            .cls-1{fill:#8e5c45;}.cls-1,.cls-2,.cls-3{stroke:#000;stroke-miterlimit:10;}.cls-1,.cls-2{stroke-width:4px;}.cls-2,.cls-3{fill:#fff;}.cls-3{stroke-width:6px;}.cls-4{opacity:0.85;}.cls-5{fill:#ce5e5f;}
        </style>
    </defs>
    <title>
        beРесурс 9
    </title>
    <g id="Слой_2" data-name="Слой 2">
        <g id="Слой_1-2" data-name="Слой 1">
            <rect width="358" height="550.67" x="2" y="2" class="cls-1" rx="12" ry="12"/>
            <rect width="328.67" height="523.33" x="14.59" y="15.03" class="cls-2" rx="12" ry="12"/>
            <rect width="54" height="54" x="43.1" y="144.49" class="cls-3"/>
            <path d="M143.82,158.17l.32-1.79a.85.85,0,0,0-1.64-.43c-1.49,3.84-2.66,7.82-4,11.73a1.17,1.17,0,0,0,2,1.22c4.93-4.85,9.68-9.91,14.49-14.88l-1.79-.89c-.51,2.56-1.08,5.1-1.64,7.65-.43,1.95-1.63,4.74-1.4,6.73.15,1.32.52,2.29,2,2.6,4.8,1.06,9.5-8.2,10.89-11.53a1.39,1.39,0,0,0-1.84-1.75,5.85,5.85,0,0,0,.15,10.68c6.32,2.8,10.83-3.44,11.65-8.91a1.58,1.58,0,0,0-1.92-1.61c-2.58.8-4,3.7-2.2,6.09,3,4,7.87.16,10.12-2.31l-2.54-1.31a3.26,3.26,0,0,0,2.63,4.47c1.74.32,2.95-.64,4.44-1.37,3.91-1.94,6.49-1.05,9.94,1.31a1.17,1.17,0,0,0,1.69-1.56,8.33,8.33,0,0,0-5.78-3.55,10,10,0,0,0-3.57,0c-1.13.2-6.78,2.12-6.63,1.71.46-1.26-1.24-2.64-2.28-1.59-1.15,1.68-2.87,2.09-5.14,1.24l-1.92-1.61c-.35,2.31-1.15,4.71-3.44,5.74a2.38,2.38,0,0,1-2.91.44q-4.23.18-1.18-5.3l-1.85-1.74a23.84,23.84,0,0,1-3.64,6.49,20.07,20.07,0,0,1-3.1,3.08c-1.12.11-1.42-.3-.91-1.23-.35-1.46.82-4.21,1.11-5.72.43-2.24.86-4.47,1.34-6.69a1,1,0,0,0-1.79-.9c-4.92,4.91-9.93,9.75-14.73,14.78l2,.93c1.15-4,2.44-7.94,3.38-12H142.5l.64,1.86a.36.36,0,0,0,.68-.07Z"/>
            <path d="M212.5,157c-3.72,1.14-4.9,6.08-1.19,8.17,4.58,2.58,8.3-1.85,8.86-6a.54.54,0,0,0-.88-.46c-2,2.06-5.62,7.74-.47,8.67,5.87,1.07,5.13-6.67,5-10L222,158.84c2.76.69,5.35,2.23,8,2.9,1.23,1.4,2.35,1.21,3.34-.57l4.33-1.73c.49.16,1.74,2.66,2.39,3.17a6.64,6.64,0,0,0,2.43,1.19,6.31,6.31,0,0,0,7.95-6.52l-2,1.4c5,1.41,11.34-2.2,12-7.56l-3.29,1.16a30.07,30.07,0,0,1,8.33,8.38l.68-2.18c-4.35,1.63-11.69,6.59-7,12.05a4.39,4.39,0,0,0,4.71,1.33c3.64-1.17,4.43-5.42,5.24-8.58l-3.61-.36c0,2.59.48,3.82,2.6,5.3,1.37,1,3.08-.8,2.32-2.19l-1.26-3.22a1.83,1.83,0,1,0-3.59.58c.43,2.51-6,3.36-2.9.54a11.68,11.68,0,0,1,4.62-2.44,1.64,1.64,0,0,0,1.07-2.33,36,36,0,0,0-8.57-9.9c-1.25-1-3.64-.17-3.31,1.67a16.8,16.8,0,0,1,.63,2.37q1.1,1.2-2,2c-1.42,2.28-3.22,2.49-5.4.61a1.57,1.57,0,0,0-2.4,1.22c-3.38,3-5.6,3.22-6.67.63q-.45-.66-.93-1.29a5.53,5.53,0,0,0-1.67-1.15c-2-.79-4,0-5.49,1.34-2.84,2.47-5.61,8.26-1.79,11a3.53,3.53,0,0,0,5.76-3.22c-.54-5.55-9.72-7.62-14-8.31a1.39,1.39,0,0,0-1.41,1.93,16.38,16.38,0,0,1-4.63,4.38q-4.78,5.64-3.73-4c.91-.26.57-1.71-.33-1.44Z"/>
            <path d="M277.09,161.19a35.84,35.84,0,0,1,.49-4.26c.18-.92-1.18-1.58-1.62-.64-1.27,2.73-.67,8.09,2.22,9.66.66.36,1.6-.3,1.32-1-.47-1.27-1.44-2.22-1.84-3.55a10.14,10.14,0,0,1-.08-4.42l-1.7,0a35.09,35.09,0,0,1,.79,4.21c0,.22.4.28.42,0Z"/>
            <path d="M287.29,154.71a10.37,10.37,0,0,0-.62,8.9,1.23,1.23,0,0,0,2.29-.89l-.18,1.21a1.23,1.23,0,0,0,.18-1.21,9.23,9.23,0,0,1,0-7.13,1,1,0,0,0-1.68-.88Z"/>
            <path d="M286.92,160.14l-.19-1.39-1.59,1.1c3.26,1.22,5.46,3.15,6.18,6.71.25,1.23,2.19,1.66,2.61.28.57-1.89,3.56-11.66,6.33-10a9.61,9.61,0,0,0,.53,2.69,3.38,3.38,0,0,0,1.31,1.17,5.28,5.28,0,0,0,4.74-.23c1.07-.53,1.71-1.5,2.67-2.16,3.91-2.67,7.18.12,10.12,2.48,1.11.9,2.92-.6,2.17-1.85-1.76-2.92-5-5.83-8.72-5.55a7.18,7.18,0,0,0-3.77,1.56c-.86.64-1.5,1.5-2.32,2.19-2.11,1.78-2.91.46-4.19-1.47s-1.89-3.17-4.39-1.76c-3.47,2-5.76,8.5-7,11.93l2.61.28c-.84-4.38-3.73-7.69-8.19-8.42a1.14,1.14,0,0,0-1.25,1.48l.43,1.27c.35,1,2.09.82,1.93-.34Z"/>
            <path d="M145.85,185.26,144,186l1,1.57c2.68-2.67,5.37-5.34,8-8.07l-1.92-.35c1.52,3.19-4.08,10.29,1.08,12.39,3.93,1.6,8.9-5.36,11.05-7.61.89-.94-.5-2.45-1.53-1.68-6.83,5.1,1.36,14.21,8,9.86,1.43-.94,2.15-3.87,3.27-4.5.82-.46-1.27.49.25.19.05,0,1.55.65,1.53.65,4.33.63,3.86-4.58,4.21-7.2l-2.44.3c.83,2.27,2.38,2.78,4.65,3.21,3.3.63,3.69.07,3.1,3.57a7.2,7.2,0,0,0-.41,1.94,2.64,2.64,0,0,0,2.72,2.62c2.31-.17,4-5,5.19-6.69.86-1.27-1-2.79-1.86-1.52-4.49,6.35,6.12,11.53,8.05,2.4l-3.2-.07a7.58,7.58,0,0,0,8.86,6.09c1.78-.4,1.54-2.82,0-3.33a10.71,10.71,0,0,1-5.8-3.93c-1.17-1.74-4-.29-2.92,1.57l-3.14-1.21-1.86-1.52a28.08,28.08,0,0,1-3.2,4.54c.43-.4.88-.63,1.12-1.26.45-1.22.79-2.07.22-3.35-1.67-3.76-7.58-1.06-9.17-4-.91-1.67-3.33-.14-2.2,1.23l-3.35,4.17c-.18-.47-.79-.33-1,0a9.5,9.5,0,0,1-2.83,3.52c-3.33,2.45-12.67-.81-6.51-5.43l-1.53-1.68c-1.45,1.53-4.12,5.18-6,5.88l-.9.73c-2.37-1.24-2.88-2.83-1.5-4.76.7-2.14,1.19-3.78.17-5.92a1.16,1.16,0,0,0-1.93-.35c-2.6,2.71-5.13,5.46-7.67,8.22-.78.85.26,1.91,1.2,1.47l1.82-.85c.93-.43.24-2.06-.72-1.66Z"/>
            <path d="M204.18,188.64a3.29,3.29,0,0,0-1.52,3.84,1.49,1.49,0,0,0,1.73,1.18c3.31-1.06,10.74-4.53,10.44-9.1-.17-2.71-3.12-3.2-5.05-1.77-3.25,2.4-1.73,7.31,1.32,9.06,5,2.89,10.28-.95,13.76-4.37l-2.19-.94a3.74,3.74,0,0,0,3.31,4.69c3.85.47,5.77-3.42,6.85-6.39l-2.77.17c1.16,2.87,3.38,4,6.37,3.69,2-.17,1.34-3.23-.63-3l-3-2a1.51,1.51,0,0,0-2.77.17q-.54,3.31-4.87,2.7c-.05-1.18-1.52-1.32-2.19-.63a15.5,15.5,0,0,1-5.58,4.11l-2.22.44q-7.51-1.33-4-3.66c1-.89,1.14-1,.41-.34a11.7,11.7,0,0,1-1.64,1.32,22.7,22.7,0,0,1-6,2.94l1.72,1.18.53-1c1.57-1.07-.35-3.31-1.91-2.26Z"/>
            <path d="M243.13,191.14a4.9,4.9,0,0,0,6.35-5.63l-2.09,1.22c2.79,2.68,7.78,3.28,10.57.2a.85.85,0,0,0-1-1.33c-2.79,1.2-5.62,1.25-8-1a1.32,1.32,0,0,0-2.09,1.22,2.33,2.33,0,0,1-2.78,2.94c-1.54-.46-2.53,1.85-1,2.34Z"/>
            <path d="M268.28,181.71a14.81,14.81,0,0,0-1.64,6.71,1.31,1.31,0,0,0,2.06,1.19,13,13,0,0,0,5.57-9.7c.19-1.63-2.09-2.13-2.91-.92a5.72,5.72,0,0,0,1.52,7.72c3,2,6.4.24,7.66-2.82L279,183a14,14,0,0,0-1.35,6.82c.08,1.69,2.82,1.34,2.64-.39a17,17,0,0,1,.38-5.78A.91.91,0,0,0,279,183a3.08,3.08,0,0,1-4.06.72c-1.21-.81-1.14-2.19-.69-3.44l-3.09-.53a10,10,0,0,1-4,7.77l2.06.86a12.38,12.38,0,0,1,.83-5.8c.45-1.15-1.17-2.05-1.75-.9Z"/>
            <path d="M284.84,177a4.59,4.59,0,0,0,2,5.46c2.29,1.35,4.79.2,6.64-1.31l-1.52-1.35a41.89,41.89,0,0,1-2.45,3.77,1.2,1.2,0,0,0,1,1.93c4.12-.3,8.61-.34,12.58-1.51a1.31,1.31,0,0,0-.34-2.49c-4.1-.17-8.45.91-12.48,1.64l1.2,1.66c.7-1.29,1.36-2.62,2.18-3.84a1.07,1.07,0,0,0-.85-1.75c.51,0-3.86.11-3.63-.6.94-2.85-3.55-4.46-4.35-1.61Z"/>
            <rect width="54" height="54" x="43.1" y="229.47" class="cls-3"/>
            <path d="M145.4,248.33c-2.2,1.15-5.08,4.39-2.28,6.7,3.4,2.81,6.8-4.1,8.14-5.93a1.22,1.22,0,0,0-1.66-1.75,3.91,3.91,0,0,0,.17,6.92c3.75,2,7.21-1.34,9.29-4.08l-2.22-1.27a4.91,4.91,0,0,0,3.58,7c5.46,1.08,8.78-5.33,12.43-7.92l-1.6-1.38c-1.25,3.27-2.94,9.54,2.76,9.81,6.31.31,5.94-7.47,4.79-11.45a1.8,1.8,0,0,0-3-.78,4.75,4.75,0,0,0,.55,7.69c3.74,2.5,7.16-.39,10-2.73l-1.66-1.74q-1.58,2.5-3.17,5a1.71,1.71,0,0,0,.24,2c.62.59,1.27,1.15,1.93,1.69,1.4,1.17,3.18-1.1,2-2.39-1.32-1.5.31-3.4,1-5.11a1.22,1.22,0,0,0-1.82-1.47q-4.78,4.62-6.6-.47l-3-.78c1.11,1.86.4,2.39-2.14,1.61a1.1,1.1,0,0,0-1.6-1.38,20.83,20.83,0,0,0-3.06,2.37c-.8.75-1.57,1.52-2.34,2.3q-2.73,3.21-7-.93a1.3,1.3,0,0,0-2.22-1.27,10.46,10.46,0,0,1-1.56,1.88c-1.14,1.74-2.62,1.34-4.43-1.18l-1.66-1.75c-.72,1-1.75,3.4-2.78,3.86-.45,1.07-.73,1-.82-.1-.52-.76-.32-1.33.6-1.72a.81.81,0,0,0-1-1.28Z"/>
            <path d="M200.37,245.36a19.33,19.33,0,0,1-2.79,4.09c-1.11,1.24-2.5,2.07-3.71,3.2l2,1.9a6.22,6.22,0,0,0,1.21-2.06,1,1,0,0,0-1.31-1.18,6.34,6.34,0,0,0-1.92,1.34c-1.13,1,0,3.21,1.46,2.37,3.15-1.87,5.32-5.69,6.59-9,.34-.89-1.12-1.47-1.55-.63Z"/>
            <path d="M202.78,245.42c-2,2-3.94,6.16-1.79,8.64a.89.89,0,0,0,1.47-.41,32,32,0,0,0,0-3.53,7.29,7.29,0,0,1,1.54-3.75c.54-.69-.59-1.55-1.2-1Z"/>
            <path d="M209.2,248.76l-1.53-1c-.94-.91-2.52.41-2,1.53,2.3,4.88,9.27,6.75,12.91,2.15a8.27,8.27,0,0,0,1.13-7.86,20,20,0,0,0-2.35-4.11,15,15,0,0,1-1.85-3c-1.61-4.55,2.51-8.41,7.08-7.7a.92.92,0,0,0,.65-1.69c-5.11-2.71-11.27.29-11.48,6.33-.08,2.6,1.17,4.66,2.73,6.62,1.71,2.14,4.4,4,3.13,7.5-1.71,4.7-7.28,4.12-9.71.44l-.54,2,1.59-.11a.56.56,0,0,0,.23-1.09Z"/>
            <path d="M227.74,247.91c-2.08,1.09-3.3,5,.11,5.31,2.63.25,2.67-2.91,1-4.16l0,2.18a23.53,23.53,0,0,1,3.31-2.58,5.81,5.81,0,0,1,3.5-1.1c2,.73,2.63,1.85,1.82,3.33s.93,2.82,2,1.54a9.19,9.19,0,0,0,1.68-8.74l-1.37,1.81a3.76,3.76,0,0,1,2.69,1.95,1.13,1.13,0,0,0,2-.73c-.33-2.39-2.08-3.64-4.43-3.83a1.33,1.33,0,0,0-1.37,1.81,6.47,6.47,0,0,1-1.21,6.19l2,1.54a4.75,4.75,0,0,0-2.7-7.14c-4-1.37-7.33,1.28-9.85,4.07a1.39,1.39,0,0,0,1.32,2.17l.5-1.95c1.11-.64.06-2.26-1-1.67Z"/>
            <path d="M252.28,244.72a3.32,3.32,0,0,0-2.76,3,2.79,2.79,0,0,0,2.66,3.09A1.89,1.89,0,0,0,254,250a1,1,0,0,0,0-.88c-.18-.42-.5-.48-.89-.57-.27.08-.31.07-.12,0s.16-.1.06-.15a4.22,4.22,0,0,1-.27-.39s-.16-.21-.06-.07-.06-.17,0,0,0,.12,0,.16.12-.21,0,0c.14-.18.09-.09.3-.12a1.62,1.62,0,1,0-.72-3.15Z"/>
            <path d="M254.74,246l1.5,1a5.63,5.63,0,0,0,1.66,1,1.46,1.46,0,0,0,1.62-.5,1.43,1.43,0,0,0,0-1.7l.3.65a1.06,1.06,0,0,0-.2-.49,2.05,2.05,0,0,0-.39-.49,8.78,8.78,0,0,0-1-.68l-1.78-1.16c-1.55-1-3.19,1.31-1.66,2.36Z"/>
            <path d="M264.38,241.1l-.27,2.52,1.09-1.07c.39,0,.92.71,1,1a6.44,6.44,0,0,1,.07,2.36,5.67,5.67,0,0,0,.83,3.51c1.27,1.7,4.49,2.31,5.05-.27a1.35,1.35,0,0,0-1.17-1.48c-1.15-.14-1.59.43-1.86-1.11-.19-1.06-.06-2.15-.3-3.21a3.67,3.67,0,0,0-3.14-3.09c-3.39-.23-3.52,5-.22,4.75a1.26,1.26,0,0,0,1.09-1.07l.23-2.5c.14-1.57-2.27-1.94-2.44-.36Z"/>
            <path d="M278.46,237.27a177.55,177.55,0,0,0-1.79,18.54l3-.18a30.38,30.38,0,0,1,.3-10.84c.13-.59.69-3.54,1.27-3.84,2.05,1.83,2.1,3.13.17,3.92a11,11,0,0,1-2.44.73c-1.47.32-1.58,2.8.1,2.79,3.38,0,6.82-1.35,7.82-4.87a5.15,5.15,0,0,0-3.75-6.62c-8.32-1.66-7.31,14.92-6.4,19.29a1.5,1.5,0,0,0,2.95-.18A179.63,179.63,0,0,0,280,237.3a.77.77,0,0,0-1.54,0Z"/>
            <path d="M295.09,236.7a5.88,5.88,0,0,0-3.9,4.94c-.2,2.34,1.29,5.31,3.9,5.35a1.07,1.07,0,0,0,.82-1.63c-.7-1.15-1.88-2-1.78-3.51a3,3,0,0,1,2.11-2.58c1.71-.66.54-3.17-1.15-2.57Z"/>
            <path d="M297.9,238.91a9.77,9.77,0,0,0,10.64,3.16l-2.09-3.73a5.11,5.11,0,0,0-.07,8,6.39,6.39,0,0,0,4.84,1.26c.9-.13,4.8-2.11,5.06-1.35.75,2.16,3.71,1.41,3.77-.73a3.75,3.75,0,0,0-3.3-3.86,5.39,5.39,0,0,0-2.61.21,15.82,15.82,0,0,0-1.75.74,5.13,5.13,0,0,1-1.08.45c-1,.56-1.72.14-2.29-1.26a2.17,2.17,0,0,0-2.09-3.73,5.22,5.22,0,0,1-5.58-1.71c-1.8-2.08-5.25.45-3.45,2.55Z"/>
            <path d="M167.94,263l1-1.17-.77-.55c-3.57,4.09-7,10.83-4.9,16.33.24.61,1.05.32,1.14-.21.39-2.42.2-4.85.69-7.27a20,20,0,0,1,3.84-8.3c.37-.48-.39-1-.77-.55l-1,1.22c-.33.43.33.9.68.5Z"/>
            <path d="M171.27,272.58c-2.37,1-2.44,4.61.31,5.18,3.3.68,5.29-3.7,3.67-6.26-1.75-2.78-5.53.46-4.34,3.09a3.56,3.56,0,0,0,3.76,1.91,3.85,3.85,0,0,0,2.5-1.58c.85-1.06,1.22-3.62,2.4-4.28l-1.53,0c1.64,1.58,2.93,3.3,2.54,5.75l3.2.07c-.81-3.15.94-5.41,3.12-7.45a1.07,1.07,0,0,0-.86-1.75c-4.56.7-6.54,5.83-5.48,10,.38,1.47,2.93,1.79,3.2.07.56-3.52-.7-7.62-4.46-8.82a1.29,1.29,0,0,0-1.73,1c-.23,1.05-2.47,4.08-3.49,4l-1-.77-1.06,2.1c1.39-.56.6-2.74-.79-2.18Z"/>
            <path d="M190.39,272.57a57.7,57.7,0,0,0,2.77-5.14c.51-1.13-.77-2.06-1.78-1.72a9.78,9.78,0,0,0-3.83,1.9,4.22,4.22,0,0,0-1.21,4.29,2.84,2.84,0,0,0,3.45,2.05c1.29-.27,2.41-1.21,2.14-2.61a1,1,0,0,0-1.41-.54,1.41,1.41,0,0,1-.56.31c-.1,0,.24.19-.08-.11s-.37-.15-.26-.68c.26-1.28,1.72-1.76,2.81-2.14l-1.61-2a54.34,54.34,0,0,0-3.25,4.69c-1.15,1.79,1.74,3.56,2.82,1.73Z"/>
            <path d="M195.69,266.42a20.42,20.42,0,0,0-3.63,7.78,1.66,1.66,0,0,0,3,1.32c1-1.63,2.55-3.66,2.72-5.56a1.2,1.2,0,0,0-1.87-1.15c-1.64,1.1-2.66,3.33-3.67,5l3,1.32a18.16,18.16,0,0,1,3.27-7c1.29-1.69-1.54-3.4-2.82-1.72Z"/>
            <path d="M200.16,265.76c-.72,1.9-1.45,3.83-2.27,5.69s2,2.77,2.94,1.32c.82-1.2,2.15-2.43,3.73-2s1.35,1.7.26,2.61c-1.48,1.24.28,3.71,2,3.1l-1.86-.42a1.87,1.87,0,0,0,1.86.42c3.58-1.3,3.77-6.18.83-8.29-3.44-2.48-7.58-.39-9.54,2.87l3,.49c-.3-1.89-.48-3.85-.67-5.75,0-.09-.16-.15-.2,0Z"/>
            <path d="M224.76,266.93a4.73,4.73,0,0,1,1,4.24c-.37,1.35-2.53,3.76-4.16,2.52l-1.14,3.58a4,4,0,0,0,3.38-3.07,1.82,1.82,0,0,0-1.78-2.21,4.11,4.11,0,0,0-3.63,2.39c-.9,1.69,1,3.2,2.54,2.78,2.52-.67,5-1.8,6.3-4.19a6.81,6.81,0,0,0-.66-7.31c-.87-1.16-2.76.14-1.86,1.27Z"/>
            <path d="M236.1,264.25c-2,1-3.69,4.24-2.12,6.26a1.79,1.79,0,0,0,3.2-1.14l-.07-.45c.06.33.1.34.13,0,.14-.5,0-.52.27-.92-.15.24.16-.2.21-.24-.12.08-.09,0,.11-.08a2.71,2.71,0,0,1,.37-.21,2,2,0,0,0,.57-2.68,2,2,0,0,0-2.67-.57Z"/>
            <path d="M236.73,264.23a8.23,8.23,0,0,0-2.25,4.31c-.24,1.4-.35,3.56,1,4.43a1.35,1.35,0,0,0,2-.58c.4-1.1-.16-2.15,0-3.3a5.36,5.36,0,0,1,1.41-2.9c1.1-1.22-1-3.16-2.17-2Z"/>
            <path d="M247,264.47c-2.08.67-3.77,2.86-3,5.07a.85.85,0,0,0,1.66-.21,5.6,5.6,0,0,1,1.83-4.09c.43-.33,0-.92-.47-.77Z"/>
            <path d="M247.83,268.26l-.44,1.31a1.3,1.3,0,0,0,.69,1.66,1.27,1.27,0,0,0,1.65-.69l.44-1.31a1.27,1.27,0,0,0-2.34-1Z"/>
            <path d="M250.65,267.31a52.81,52.81,0,0,1-5.61,8.51c-2.39,2.92-5.07,6.48-8.71,7.84l2.41,3.31c2.85-3.57,4.76-8,6.41-12.22a1.17,1.17,0,0,0-2-1.22c-3,3.42-6.1,7.08-8,11.25-1,2.11,2.23,4.21,3.58,2.19,2.35-3.51,5.86-6.15,8.36-9.57a55.55,55.55,0,0,0,5.38-9.18,1,1,0,0,0-1.83-.91Z"/>
            <path d="M252.29,266.21a3.85,3.85,0,0,0,1.89,3.12c1.09.59,3,1.05,4,.05a.75.75,0,0,0-.49-1.27c-1-.08-1.76.34-2.76,0a4.18,4.18,0,0,1-2.4-1.89c0-.1-.22-.1-.2,0Z"/>
            <path d="M259,267a2.42,2.42,0,0,0-.87,3.59,2.07,2.07,0,0,0,3.42-.26,1.14,1.14,0,0,0-1.11-1.59l-.25,0h.14q.21.09,0,0a.58.58,0,0,1,.14.17.54.54,0,0,1-.21.78,1.51,1.51,0,0,0,.71-2,1.49,1.49,0,0,0-2-.7Z"/>
            <rect width="54" height="54" x="43.1" y="317.64" class="cls-3"/>
            <path d="M158.93,330.25l.1-1a1.2,1.2,0,0,0-1.58-1.3c-5,1.76-6.68,8.38-2.61,12a5.08,5.08,0,0,0,5.6,1.1c2.73-1.2,2.92-3.23,3.92-5.63l-1.67-.64c-.54,2.81,2.16,4.58,4.78,4.37,3.76-.3,5.41-4.2,6.46-7.3l-2.63-.28a39.28,39.28,0,0,0,1.19,8.84c.2.67,1.36.85,1.5,0a40.09,40.09,0,0,0,0-9.29,1.38,1.38,0,0,0-2.64-.27c-.84,2.45-4.54,9-7,3.65-.48-1-2.13-.1-1.55.92,1.93,3.42-5.38,4-6.83.91-1.28-2.71.77-4.82,2.59-6.37l-1.65-.29.81,1a.71.71,0,0,0,1.22-.45Z"/>
            <path d="M178.8,334c5.33,1.86,10.23-.75,12.7-5.62l-1.85-.92a8.59,8.59,0,0,0,2.07,10c.93.72,2.6-.23,2.25-1.43-.43-1.45-1.27-2.68-1.68-4.14s-.41-2.9-.73-4.33c-.26-1.12-1.71-.76-2,.11-1.35,4.15-6.51,6.47-10.61,5.74-.3-.05-.46.43-.16.54Z"/>
            <path d="M197.21,328.27a27.12,27.12,0,0,0,3.7,8.7l.64-1a2.18,2.18,0,0,1-1.34-.28l.38,1.74c1.33-1.42,1.57-3.71,3.53-4.55.74-.32,2-.47,2.57.26a1.29,1.29,0,0,1-.39,2,1.37,1.37,0,0,0,1.09,2.51c3.63-1.41,2.87-6.61-.55-7.75-3.86-1.29-9,2.81-8.21,6.94a1.13,1.13,0,0,0,1.73.84l1.13-.3a.7.7,0,0,0,.7-.82,27.85,27.85,0,0,0-3.61-8.76c-.41-.7-1.6-.33-1.37.51Z"/>
            <path d="M215.27,328a2.46,2.46,0,0,1,2.95,1.91c.29,1.3-.51,2-1,3.09a1.07,1.07,0,0,0,1.28,1.47c2.12-.61,2.76-3.71,1.86-5.51a4.65,4.65,0,0,0-5.28-2.14.6.6,0,0,0,.22,1.18Z"/>
            <path d="M221,327a25.43,25.43,0,0,0,7,2.07.61.61,0,0,0,.24-1.17,25.25,25.25,0,0,0-7.18-1.1c-.11,0-.14.16,0,.2Z"/>
            <path d="M234.84,327.07c-4.1-2.11-7.34,3.44-3.93,6.37,4.51,3.88,8.69-1.38,8.91-5.75l-2.43-.35c-.42,3.27.81,8.91,5.3,8.47a3.75,3.75,0,0,0,3.08-2.52,8.43,8.43,0,0,0,.22-1.22,9.29,9.29,0,0,1,.43-2.34c3.41.8,3.91,1.93,1.47,3.41-.8.72.17,1.9,1.07,1.65,3.93-1.1,6.11-6.82,1.66-9a3.72,3.72,0,0,0-3.93.26c-.73.57-.79,1.37-1.29,2-1.37,1.8,2,1.28-2.76,1.52-3.15.16-2.36.21-2.81-2.23-.24-1.28-2.37-1.52-2.44,0,.25,1.64-.73,2-3,1.16a.77.77,0,0,0,.41-1.43Z"/>
            <path d="M256.88,326.05a2,2,0,0,1,.05,2.72c-1,1.23-2.8.17-2.67-1.32.2-2.39,3.21-1.92,4.55-.83a6.36,6.36,0,0,1,1.5,1.92,6.17,6.17,0,0,0,1,1.83.78.78,0,0,0,1.31-.72c-.27-1.29-1.77-2.82-2.76-3.67a5.23,5.23,0,0,0-3.4-1.35,3.21,3.21,0,0,0-3.19,4.41c.9,2.24,3.45,3.67,5.4,1.64a3.69,3.69,0,0,0-.89-5.76c-.69-.33-1.59.53-.92,1.13Z"/>
            <path d="M268,324.47c-3.29,1.07-4,6.53-.89,8.28a2.22,2.22,0,0,0,2.55-.15c.82-.9.09-1.84-.45-2.54-.76-1-1-2.43.25-3.21,1.45-.91-.08-2.82-1.46-2.38Z"/>
            <path d="M275.18,323.45c-.52,2.18,1.71,3.63,3.71,3.64a7.61,7.61,0,0,0,3.36-1,9.29,9.29,0,0,1,2.65-1.19c1.51-.18,2.24,1,3.55,1.18a.61.61,0,0,0,.61-.4c.66-2.2-1.79-2.43-3.36-2.37-2.76.09-7.48,4-9,.2-.26-.69-1.36-.88-1.56,0Z"/>
            <path d="M287.18,326.76a21.06,21.06,0,0,1-3.35,2.68c-1.2.76-3,2-4.45,1.85l.41,2.63a14.33,14.33,0,0,0,5.54-4,1,1,0,0,0-1-1.6,14.43,14.43,0,0,0-5.92,3.28c-1.32,1.22.5,3.4,1.71,2.15s3.09-1.87,4.49-2.9a22.07,22.07,0,0,0,3.43-3.12c.53-.59-.24-1.52-.84-.95Z"/>
            <path d="M299.46,323.92c-.87,1.16-1.75,2.32-2.62,3.49a1.69,1.69,0,0,0,.21,2,2.57,2.57,0,0,0,2.91.91,1.68,1.68,0,0,0,1.22-1.18,11.12,11.12,0,0,0-1.9-8.88,2,2,0,0,0-2.79-.53c-3.18,2.39-1.77,7,.93,9.17,3.94,3.2,9.2,1.25,12.28-2.12a1,1,0,0,0-.72-1.6c-3.12.14-11.13,2.3-9.38-3.44l-3.3,1.17a4,4,0,0,1,1.63,5.33l1.64-1.23-.1.12.21,2,2.07-3.57a1.41,1.41,0,0,0-2.29-1.64Z"/>
            <path d="M309.64,325.85c-.11-.06-.07,0,.11.07-.09-.1-.06-.07.1.08a.92.92,0,0,1,.28.43,3.74,3.74,0,0,0,.12.5c0,.21.06.24,0,.09a2,2,0,0,1,0,.35,4.29,4.29,0,0,0-.09.66,1.55,1.55,0,0,0,1.87,1.6c.63-.14.86-.55,1.16-1.05.16.13.24,0,.25-.37,0-.12.09-.24.13-.37a5,5,0,0,0,.14-1,3.93,3.93,0,0,0-.41-1.81,4.36,4.36,0,0,0-2.79-2.33,1.65,1.65,0,0,0-.91,3.17Z"/>
            <path d="M166.49,352.81c-3.67.47-6.45,4.75-3.45,7.84s7.65.48,7.33-3.54l-1.73.25a46,46,0,0,1,2.66,9.56l1.53-.62c-1.59-3.89,1-9.3,5.8-7.88,5,1.48,3.76,7.38-.67,8.78a.71.71,0,0,0,.12,1.39c6.36.57,7.92-8.56,2.48-11.18-6.31-3.05-11.56,3.6-9.26,9.51.31.79,1.74.82,1.64-.21a28.46,28.46,0,0,0-2.69-10c-.39-.83-1.64-.37-1.64.46q-6.95-1.45-1.82-3a.7.7,0,0,0-.3-1.37Z"/>
            <path d="M194.36,354.9c-.61.92-1.31,2.17-2.43,2.52-1.44.46-2.09-1.2-.73-1.78,1.78-.76,3.22,1.49,3.06,3a4.81,4.81,0,0,1-3.56,3.74c-1.52.47-3,.06-4.28,1.13a1,1,0,0,0,.06,1.39c1.37,1.42,4,.78,5.6.19a7.78,7.78,0,0,0,4.32-3.67c1.72-3.28.42-7.53-3.39-8.49-2.89-.73-6.76,2.08-5,5.22a3.24,3.24,0,0,0,3.54,1.41c2.06-.44,3-2.37,3.76-4.13.25-.59-.65-1-1-.5Z"/>
            <path d="M202.25,356.45A5.85,5.85,0,0,0,209,353.4l-1.32-.4c.11,2.23-4.25,4.49-1.74,6.82a2.36,2.36,0,0,0,3.05.07c1.56-1.15.9-2.9,1.61-4.41.3-.64-.34-1.56-1.06-1.1-3.72,2.43-4.22,10,.06,12.15,1.13.56,2.12-.83,1.74-1.83-.49-1.34-1.46-2.36-1.72-3.81a10,10,0,0,1,1.06-5.6l-1.45.16c1.07,1.81-2.81,4.45-1.67,1.47a10.27,10.27,0,0,1,.82-1.28,4.26,4.26,0,0,0,.72-2.59c-.05-.62-1-1.12-1.32-.4a5.68,5.68,0,0,1-5.44,3.17.32.32,0,0,0-.1.63Z"/>
            <path d="M216.33,355.68c.68-1.25,2.89-1.36,2.76.38a2.52,2.52,0,0,1-1.58,2l2.05,1.07a3.58,3.58,0,0,1,1.28-3.52l-1.9-.35c1.95,4.27,9,7.46,12.26,2.74a.85.85,0,0,0-.95-1.23c-3.3,1.21-7.56,1.86-9.2-2.25a1.14,1.14,0,0,0-1.69-.56,7.88,7.88,0,0,0-2.69,5.32,1.47,1.47,0,0,0,1.71,1.54,5.3,5.3,0,0,0,3.31-7.84c-2.18-3.64-7.09-2.88-9.47,0-2,2.44,2.59,5.52,4.11,2.7Z"/>
            <path d="M231.83,354.17a17.37,17.37,0,0,1,1.48,5.18c.18,1.55-.09,3.11.15,4.65.15,1,1.43.68,1.7,0,1.22-3.22-.39-7.75-1.86-10.64-.5-1-1.91-.14-1.47.83Z"/>
            <path d="M239.66,353.62c-1.26.81-1.33,2.46-2.28,3.56-1.82,2.08,1.76,4.6,3.06,2.16a6.2,6.2,0,0,0,.85-3.75,2.77,2.77,0,0,0-.76-1.68c-.16-.13-.66-.42-.87-.29Z"/>
            <path d="M247.89,352.4c-1.78,2.11-1.81,5.58,1,7s5.5-.75,6.19-3.41a1.64,1.64,0,0,0-3-1.32c-1.27,1.84-2.17,3.89-3.46,5.73a31.75,31.75,0,0,0-3.54,5.61,1.38,1.38,0,0,0,1.83,1.74c4.28-2,7.49-7.66,8.19-12.18l-3.26-.09c.08,1.84-3.22.91-1.82-.71s-.81-3.9-2.12-2.36Z"/>
            <path d="M256,352.85a5.44,5.44,0,0,0,.16,7.83c2.43,2.12,6.26,1.1,7.85-1.48a1.77,1.77,0,0,0-1.54-2.63c-3-.07-6.85.85-8.8,3.28a2.07,2.07,0,0,0,2.75,3,3.38,3.38,0,0,0,1.47-1.52,1.38,1.38,0,0,0-.47-1.59,3.45,3.45,0,0,0-1.84-.61l.84,3.72a27.24,27.24,0,0,1,2.83-1.94,9.2,9.2,0,0,1,3.25-.85L261,357.45c-1.23,1.78-3.79-.38-2.1-2s-1.08-4.31-2.86-2.59Z"/>
            <path d="M266,362.9l.52.47c.17.16.37-.1.23-.27l-.48-.52c-.18-.2-.48.13-.27.32Z"/>
            <path d="M271.1,355.68c-.66,2.44-.39,6.22,3,6.21a4.26,4.26,0,0,0,3.35-2.11c.9-1.34,1.06-3.8,2.6-4.53l-2.11-1.07c.5,2.05,1.19,4.44.21,6.44a3.7,3.7,0,0,1-1.62,1.76,2,2,0,0,1-2.87-2.38c.13-.39-.4-.76-.67-.38-1.83,2.62.88,6,3.85,5.6,5.65-.74,5.07-7.69,4-11.6a1.52,1.52,0,0,0-2.12-1.07,6.28,6.28,0,0,0-3,3.93c-.28.8-.69,2.55-1.74,2.31s-.73-1.93-.64-2.73a1.16,1.16,0,0,0-2.29-.38Z"/>
            <path d="M286.55,352.32a2.6,2.6,0,0,1-1.6,2.79,1.08,1.08,0,0,0,.41,2.09l-1-.48a1,1,0,0,0,1,.48c2.73-.15,3.8-3.41,2.34-5.46-.39-.55-1.32,0-1.15.58Z"/>
            <path d="M292.41,356.76l-1.72,1a18.72,18.72,0,0,1-2.47,1.09l1.61,3.42a2.9,2.9,0,0,0,1.16-1.61l-.46.81a6.4,6.4,0,0,0,1.5-2.39,1.27,1.27,0,0,0-1.41-1.42,4,4,0,0,0-1.59.69,7.68,7.68,0,0,0-1.63,1c-1.73,1.75,1.06,4.29,2.81,2.59.63-.62,1.16-1.32,1.85-1.89s1.16-.92,1.74-1.38a1.2,1.2,0,0,0-1.39-1.95Z"/>
            <path d="M293.87,351c-2.27,7.95,7.39,12.54,12.81,6.86L304,355.75c-2,3.06-4.61,6.74-4.93,10.42-.23,2.54,2.82,3.13,4.27,1.54,2.32-2.53,3.18-7.34,3.84-10.65.31-1.53-1.72-3.11-2.9-1.68-3.17,3.85-9.08,1.24-8.15-4,.26-1.45-1.83-1.75-2.22-.39Z"/>
            <rect width="54" height="54" x="43.1" y="406.69" class="cls-3"/>
            <path d="M154.62,420.43c-.11-3.55-3.85-3.75-5.72-1.18-3,4.09-.54,10.29,3.48,12.64,4.23,2.49,9.76,1,12.81-2.66,3.9-4.66,2.44-10.52,0-15.44-.74-1.49-2.92-.92-3.31.5-2.88,10.5,9.28,16.38,16.92,9.87l-3.31-1.68c-.34,3.32-1,6.66-.55,10a1.34,1.34,0,0,0,2.56.29c1.21-3,1.33-6.29,1.76-9.5.2-1.46-1.52-3.13-2.92-2-5.25,4.21-11.67.5-10.94-6.12l-3,.88c5.06,4.29,2.82,12.61-3.44,14.14a6.58,6.58,0,0,1-6.92-1.94,6,6,0,0,1-1.9-3.84q-1.05-4.11,2.88-3.73a.85.85,0,0,0,1.66-.21Z"/>
            <path d="M181.54,419.58a2.37,2.37,0,0,1,3.38-2,3.4,3.4,0,0,1,1.83,2.74c.31,2-.82,3.77-.86,5.73a.53.53,0,0,0,1,.35c2-2.54,2.09-7.36-.92-9.22-2-1.21-4.89-.12-4.8,2.39,0,.28.41.24.42,0Z"/>
            <path d="M188,422.79a18.81,18.81,0,0,0,2.51,6.93c.28.42.95.07.87-.38a18.55,18.55,0,0,0-2.93-6.71c-.12-.2-.5-.08-.45.16Z"/>
            <path d="M202.35,419.92a3.86,3.86,0,0,0,.94,4.16,3.08,3.08,0,0,0,3.71.78l-.82-.92c-.13.22-.25.44-.37.66a.46.46,0,0,0,.65.63l.69-.46a.65.65,0,0,0-.4-1.13c-1.37,0-3.31-1.22-2.64-2.82.49-1.18-1.32-2.08-1.76-.9Z"/>
            <path d="M195.76,426.83l-.35-1.28L194,426.87c4.27.78,10,2.12,14.14.71.46-.16.76-.85.22-1.15-4-2.21-9.83-1.94-14.31-2-1.29,0-1.35,1.84-.35,2.32l1.16.8c.48.42,1.07-.27.87-.76Z"/>
            <path d="M215.32,414.32a47,47,0,0,1-2.76,7.55c-1.11,2.35-2.95,4.5-3.73,7-.39,1.22,1,2.48,2.13,1.56,2-1.67,3-4.34,4.09-6.66a47.3,47.3,0,0,0,2.83-8.44c.4-1.67-2.08-2.7-2.56-1Z"/>
            <path d="M224.94,423.5a2.8,2.8,0,0,0,.79-3.11,1.65,1.65,0,0,0-2.33-1.07c-2.66,1.05-3.38,5-.82,6.65,3.19,2.06,6.49-1.88,5.26-5-.38-1-1.65-1.81-2.67-1.05a4.21,4.21,0,0,0,1.11,7.5c4.62,1.82,10.14-1.58,13-5a1.86,1.86,0,0,0-2.3-2.85,4.32,4.32,0,0,0,.29,7.93c3.31,1.46,8.19-1.29,8.64-4.89a2.69,2.69,0,0,0-4.92-2l-.24.35c-1.74,2.47,2.08,5.33,4.14,3.21a4.85,4.85,0,0,0,1-1.38l-3.92.62c-.65-.93-1.67-1.16-3.05-.69l-2.3-2.85a11.59,11.59,0,0,1-4.12,3.27,7,7,0,0,1-2,.74,2,2,0,0,1-3-1.17l-2.85-.33.35-.26-1.94-.33.1.45c-.69,1.14,1.05,2.06,1.88,1.2Z"/>
            <path d="M252,415.64a8.48,8.48,0,0,1-1.38,9.67c-2.36,2.34-4.87,1.92-7.81,2.42a1.45,1.45,0,0,0-.23,2.78c3.73,1.58,8.62-1.39,10.62-4.48a10.66,10.66,0,0,0,.11-11.08.74.74,0,0,0-1.31.69Z"/>
            <path d="M261.47,411.58c-1.17,3-6.85,12.13-.73,13.52a5,5,0,0,0,4.25-1.16c2.17-1.93,1.56-4.56,2-7.09.32-2-2.85-3.4-3.63-1.25a8.14,8.14,0,0,0,5.3,10.43c5.07,1.34,9.53-3.19,9.68-8l-3,.23c.12.91.25,1.82.38,2.73l3-.6a4.11,4.11,0,0,0-1.19-2.36c-.58-.67-1.54-.08-1.74.59a3.9,3.9,0,0,0-.05,2.37c.39,1.93,3.22,1.32,3-.6-.12-.92-.24-1.83-.35-2.75-.22-1.75-3-1.5-3,.22-.26,6-8.79,5.24-8.28-1l-3.74.23a4.21,4.21,0,0,1,.12,3.3c0,1.32-.47,1.35-1.37.1-1.19-.37-1.49-1.09-.89-2.13-.05-2.1.76-4.51,1.14-6.57a.39.39,0,0,0-.75-.2Z"/>
            <path d="M278.55,420.81a3,3,0,0,1,3.22,1.87c.54,1.71-.92,2.87-1.92,4-.85.94.24,2.29,1.32,2.16,3-.35,4.48-4.05,3.86-6.71a6.19,6.19,0,0,0-6.41-4.62c-2.11.17-2.2,3.47-.07,3.31Z"/>
            <path d="M280.07,412.88l3.77.28a6.66,6.66,0,0,0,3.35-.21,1.42,1.42,0,0,0,.24-2.43,6.93,6.93,0,0,0-3.55-.71l-3.74-.24c-2.13-.13-2.18,3.15-.07,3.31Z"/>
            <path d="M262.89,413.4c-4.31-3.53-13.91-3.84-16.63,2-.57,1.21,1,2.28,2,1.81,2.11-.93,3.58-2.49,5.93-3a13.24,13.24,0,0,1,7.59.77c.91.35,2-.79,1.09-1.53Z"/>
            <path d="M290,419.09c-.11-.45-.21-.9-.32-1.35a.93.93,0,0,0-1.11-.63c-3.56.82-6.12,7.32-2.64,9.63a.93.93,0,0,0,1.33-.59c.19-1.29-.14-2.62.05-3.92.24-1.55,1.21-2.48,2.15-3.62l-1.43-.17c.18.4.36.8.53,1.2.37.82,1.63.28,1.44-.55Z"/>
            <path d="M288.64,419.49c.3,2,2.27,3.07,4,3.77A7.76,7.76,0,0,1,295,424.4c.94.86,0,.74-.63,1.08a1.57,1.57,0,0,0-.69,2.07c.79,1.57,2.71,1.51,3.92.45a4,4,0,0,0,1.19-4.15,5.5,5.5,0,0,0-3.38-3.17c-1.66-.7-3-1-4.05-2.53-1-1.35-2.88,0-2.68,1.34Z"/>
            <path d="M195.87,447.21a5.09,5.09,0,0,0-3.76-3.12,5.75,5.75,0,0,0-4.91,1.64,6.39,6.39,0,0,0-1.66,5.35c.24,1.7,1.28,4,3.24,4a1.21,1.21,0,0,0,1.07-1.31c-.13-1.09-1.11-1.75-1.39-2.83a3.67,3.67,0,0,1,.51-3c1.29-1.74,5-1.72,6.46-.38.2.18.57-.06.44-.31Z"/>
            <path d="M196,448.43c-4.43-.55-3.78,5.78-.86,7.46,4.89,2.81,9.17-1.67,11.82-5.3l-1.84.69c3.73.64,7.68-.5,8.66-4.57a.74.74,0,0,0-1.21-.74c-1.9,1.37-4.08,2.63-6.52,2.22a1.7,1.7,0,0,0-1.84.69c-1.25,1.71-2.63,3.77-4.79,4.33a2.89,2.89,0,0,1-2.85-.33c-1.06-.94-.72-2.74-.37-4.16a.26.26,0,0,0-.2-.29Z"/>
            <path d="M211.45,448c.8,2.87,1.66,5.7,2.61,8.53a1,1,0,0,0,2-.65c-.45-1.73-1.06-3.72-.62-5.52.58-2.41,4.73-4.42,5.46-1,.36,1.72-.4,2.9.93,4.34a.68.68,0,0,0,1.14-.25l2.44-8.26-2-.17c.26,3.06,1.09,6.05,3.43,8.14a1,1,0,0,0,1.46-1.19c-1.23-2.34-2.48-4.38-2.91-7a1,1,0,0,0-2-.16q-.89,4.14-1.79,8.28l1.14-.25c-1.55-1.45-.68-4.5-1.78-6.34a3.34,3.34,0,0,0-3.84-1.26c-5.17,1.19-4.23,7.67-3.13,11.37l2-.65c-1-2.81-2.17-5.57-3.35-8.32a.67.67,0,0,0-1.25.44Z"/>
            <path d="M236.24,440.54A6.56,6.56,0,0,0,234.8,445c0,1.41.33,3.28,1.54,4.16a1.1,1.1,0,0,0,1.8-.9c0-1.29-.78-2.46-.95-3.76a19.13,19.13,0,0,1-.06-3.63.49.49,0,0,0-.89-.33Z"/>
            <path d="M231.35,449c-.39.3-.95.5-1.18-.12l-1,1.65a15.23,15.23,0,0,0,3.18-1.25,7,7,0,0,0,2.52-1.78,1,1,0,0,0-.81-1.7,7.24,7.24,0,0,0-3.07,1,15.1,15.1,0,0,0-2.67,1.55,1.23,1.23,0,0,0,.24,2.11,2.93,2.93,0,0,0,3.34-.9.39.39,0,0,0-.54-.54Z"/>
            <path d="M237.2,446.75a3.29,3.29,0,0,0,2.65,3.47,4.34,4.34,0,0,0,2.64-.19c1.17-.44,2.44-2.15,3.62-2.17l-1.34-2a2.49,2.49,0,0,0,.1,1.95,1.35,1.35,0,0,0,2.3.28,2.52,2.52,0,0,0,.28-2.72,1.3,1.3,0,0,0-2.47.32c-.48,3.11-6.88,5.16-7.36,1.06,0-.22-.4-.27-.42,0Z"/>
            <path d="M253,440.57c-4.52,2-5.12,8.51-.64,10.95,4.83,2.63,9.55-1.48,9.22-6.54-.1-1.53-2.29-1.24-2.32.22,0,2.1.38,4.62,2.15,5.95a1.1,1.1,0,0,0,1.75-1.17c-.54-1.76-1.44-3.09-1.58-5l-2.32.22a3.8,3.8,0,0,1-5.85,3.8c-2.62-1.8-2.1-5.36.53-6.85,1.05-.6.1-2-.94-1.58Z"/>
            <path d="M264.87,448a61.88,61.88,0,0,1,1.24-6.32l-2.69.59a89.12,89.12,0,0,0,7.85,6.56,1.46,1.46,0,0,0,1.74-.07c2.12-2,2.75-4.09,3.46-6.89.32-1.27-1.41-1.72-2.15-.93-2.11,2.23-2.42,5.93.25,7.93,2.93,2.21,6.33-.12,8.14-2.57l-2.14-1.6c-1.78,2.41-.84,5.3,1.9,6.66,3.21,1.6,6.91-.24,9.16-2.54,1.14-1.16,0-3.63-1.7-2.94-1.41.57-6.75,3.36-7-.58-.09-1.61-2.36-1.34-2.65.05l-4.09-2.89-2.15-.94a7.38,7.38,0,0,1-2.9,5l2,.19a91.84,91.84,0,0,0-7.75-6.85,1.59,1.59,0,0,0-2.43,1.27c.07,2.23.07,4.45,0,6.67a1,1,0,0,0,1.87.18Z"/>
            <rect width="54" height="54" x="43.1" y="60.14" class="cls-3"/>
            <path d="M137.56,72a18.17,18.17,0,0,0-1.89,13.23,1.08,1.08,0,0,0,1.61.55,17.3,17.3,0,0,0,8-9.44l-2-.66a14.61,14.61,0,0,0,2.39,9.86,1.07,1.07,0,0,0,1.68.12,18.43,18.43,0,0,0,5-11.59l-2.15-.13c.45,2.68,3.06,4.36,5.47,2.63.64-.47.36-1.74-.56-1.44l-2.75-1.34c-.19-1.1-2.07-1.45-2.14-.12a16.53,16.53,0,0,1-4.41,10.58l1.68.12a12.19,12.19,0,0,1-2.09-8.29c.1-1.08-1.55-1.88-2-.66A15.28,15.28,0,0,1,136.1,84l1.61.55a16,16,0,0,1,2-11.59c.74-1.28-1.39-2.25-2.12-1Z"/>
            <path d="M156.55,76.2c1.35,2.6-.8,11.16,4.81,10.77,4.26-.29,6.48-8.26,7.43-11.33.42-1.34-1.42-2.62-2.29-1.29-1.8,2.74-.6,6.38,2.92,6.81,5,.62,6.4-4.92,7.27-8.58A.82.82,0,0,0,175.2,72a6.8,6.8,0,0,0,4.22,10.41c5.85,1.54,10.39-3.05,12.65-7.88l-2.3.34c2.63,3.73-2.27,8.46,0,12.6a4.5,4.5,0,0,0,6,2c2.74-1.19,4.91-4.52,6.5-7a46.35,46.35,0,0,0,3.39-6.23c1-2.15,1.47-4.93,2.9-6.82l-2.94-1.32c-1,4.63-2,9.27-2.91,13.92l3.89-1q-2.12-4.79,3.12-4.9A6.77,6.77,0,0,1,214,78.65c1.53,1.76,2.59,4.31,3.72,6.36.84,1.53,3.63.84,3.39-1-.87-6.58-6.07-13.89-13.61-12.48a7.34,7.34,0,0,0-4,12.52c1.21,1.23,3.3.06,3.5-1.43.62-4.65,1.24-9.3,1.79-14,.26-2.2-3.65-2.15-3.21.33.54,3.11-2.33,7.66-4.07,10.09-1.11,1.55-3.71,5.44-5.6,6-.89,1.09-1.52.57-1.92-1.57a2.72,2.72,0,0,1-.88-3.84c0-.64.25-1.26.25-1.91a6.84,6.84,0,0,0-1.51-4.54,1.35,1.35,0,0,0-2.3.33c-1.33,3-3.53,6.12-7.1,6.64-4.06.59-8.07-3.08-5.87-7.38l-1.5-.62a11.88,11.88,0,0,1-1.35,3.91q-1.41,3-5.14-.12l-2.3-1.29A37.76,37.76,0,0,1,164.78,79c-1,2.28-.86,4.79-3.51,2.45-2.07-1.82-1.16-3.77-2.43-6.17-.73-1.38-3-.51-2.29.89Z"/>
            <path d="M228.11,72.24c-5.67.82-6.21,8.24-1.26,10.63,7.51,3.64,11.82-5.11,13.94-10.63A1.3,1.3,0,0,0,238.56,71c-2,2.34-4.22,5.57-2.42,8.69A4.5,4.5,0,0,0,239,81.77a7.88,7.88,0,0,0,2.74.12l1.19-.2c1.36-.55,2.51-.11,3.46,1.3-1.6,1.06.38,3.43,2,2.29a3.63,3.63,0,0,0,0-5.82,5.36,5.36,0,0,0-3.26-1,16.12,16.12,0,0,0-2.77.33l-2,.2q-2.4-3.93.29-6.42l-2.23-1.28a22.43,22.43,0,0,1-2.54,5.54,8.71,8.71,0,0,1-2.63,2.64,3,3,0,0,1-2.58.75q-4.26,1.35-1.9-4.93c2-.28,1.34-3.31-.63-3Z"/>
            <path d="M250.44,60.72c-2,7.34-2.83,17.07,1,24a1.84,1.84,0,0,0,3.39-1c-.34-3.6-1.5-7-1.67-10.67a38.68,38.68,0,0,1,1.36-11.63c.68-2.59-3.4-3.2-4.09-.65Z"/>
            <path d="M249.65,70.15l8.52-2c1.31-.31.76-2.34-.51-2.24L249,66.5c-2.66.19-2.05,4.27.62,3.65Z"/>
            <path d="M261.4,79a10,10,0,0,0,13.94-6.8l-3.67-.8a21.59,21.59,0,0,0,1.11,13.12c.9,2.06,3.88.31,3-1.73-1.15-2.72,1-5.69,2.6-7.59L277.29,75c.86,3.63,1.29,7.58.2,11.23-.46,1.56,1.87,3.09,2.95,1.68a71.27,71.27,0,0,0,6.3-9.64.92.92,0,0,0-1.46-1.07A67.84,67.84,0,0,0,278,85.41l3,1.22c-.47-4.27-.89-8-2.52-12a.61.61,0,0,0-1.06-.07c-1.81,2.56-2.74,5.78-4.6,8.26l3.19.41a23.41,23.41,0,0,1-.63-11,1.88,1.88,0,0,0-3.67-.8,6.15,6.15,0,0,1-8.53,4.22c-2.21-1-4,2.37-1.74,3.38Z"/>
            <path d="M289.88,77.06c.72,2.31-.88,4.73,0,7.16a5.31,5.31,0,0,0,5.24,3.48A7.23,7.23,0,0,0,301,84.19c1.42-2.14,1.67-5.79,4-7.22L302,72.87a7.16,7.16,0,0,0-1.65,7.29c.81,2.59,3.14,5.18,5.95,3.62a1.58,1.58,0,0,0,.82-1.7c-.39-1.58-3.36-3.72-1.66-5.49,1.91-2-.34-5.65-2.93-4.09-3.54,2.12-3.7,5.47-5.77,8.66-.26.41-1.21,1.8-1.94,1.35-.33-.2.1-1.49.15-1.81a11,11,0,0,0,0-5c-1-3.24-6.1-1.86-5.09,1.39Z"/>
            <path d="M160.12,101.66c-2.48,7.56,9.75,7.88,7.82.26a1.25,1.25,0,0,0-2.49.3c0,4.65,2.78,11.27,8.7,9.37a5.34,5.34,0,0,0,3.52-4.41c.3-1.43-.38-5.09,1-6,4-2.71,4.82,8.83,4.77,9.89-.08,1.71,2.58,2,2.66.29.17-3.7-1.09-14.76-7.15-13.4-1.86.41-3,2.31-3.43,4-.36,1.33.28,3.75-.39,4.9-2.07,3.56-5.56,2.13-6.76-1.35a10.61,10.61,0,0,1-.41-3.59l-2.41.61-3.15.1c.48-1.49-1.77-2.48-2.26-1Z"/>
            <path d="M188.89,104.2a7.62,7.62,0,0,0,5.31,4.23c3.77.71,4.23-1.36,6.75-3.29.77-.59.35-1.25,1.71-.74.35.13,1.08,1.49,1.44,1.83a6.34,6.34,0,0,0,3.16,1.69,5.48,5.48,0,0,0,5.29-1.78c2.51-3.17-.64-8.47-4.62-6.53-5.39,2.61-1.34,9.21,2.84,10.3,1.12.3,1.8-1.36.93-2-2.54-2-5.36-3.21-7.79-5.12-.77-.59-1.5-1.47-2.62-1.11-.85.27-1,1.1-1.53,1.66-2.28,2.48-6.1,3.26-8.1-.49-.94-1.76-3.71-.38-2.77,1.38Z"/>
            <path d="M217.29,106c.34,1.48.68,3,1,4.42a.91.91,0,0,0,1.75,0c.87-3,1.73-6,2.59-9.07l-1.9-.42c-1,8.72,9.46,14.49,15.49,7.13,5.29-6.46-2.36-14.85-8-7.75-4.95,6.29,3,15.46,10,13.45,6.47-1.82,8.35-11.17,4.36-16a1.7,1.7,0,0,0-2.91,1.15c.61,11,15.53,9.52,15.08-1a1,1,0,0,0-1.9.06c-.24,3.17-.5,6.34-.7,9.51a1.49,1.49,0,0,0,2.7.94,29.61,29.61,0,0,1,7.22-8.23l-2.26-.86c.28,3.18-1.2,4.28-2.66,6.33l1.65,1.14a16.15,16.15,0,0,1,1.69-2.9l-1.63-.42c-.05,3.3,2.88,5.4,6.1,5.11,5-.45,6.66-6,7.76-10.08.29-1.06-1.2-1.67-1.87-.91-2.4,2.76-6.17,9-.81,11.23s8.11-5,8.33-8.94a1.47,1.47,0,0,0-2.84-.59c-1.68,4,.62,9.35,5.35,9.73,5,.41,8-4.7,7-9.12-.5-2.19-3.75-1.28-3.35.88q.87,4.65,1.73,9.29c.29,1.55,2.52,1.65,3.23.41,2-3.43,8-12.4,12.54-6.3,1.39,1.88,4.54,0,3.12-1.89-6.45-8.54-15.14.1-18.72,6.44l3.23.41c-.59-3.08-1.19-6.16-1.78-9.24l-3.35.88q-5.56,9.28-6.24-.53l-2.84-.59c0,1,0,2.07-.06,3.11q.56,4.22-5.63,2.53c-1-1.92,1.69-5,2.72-6.29L270.72,98a18.29,18.29,0,0,1-1.46,4.64,4.45,4.45,0,0,1-1.51,2q-2.47,4.2-7-1.32a.88.88,0,0,0-1.63-.42l-1.82,2.61c-.58.74,0,2,1.05,1.64,3.56-1.28,4.58-4.89,4.37-8.43-.07-1.12-1.49-1.41-2.26-.86a24.91,24.91,0,0,0-7.9,8.74l2.69.94q-.14-4.89-.35-9.78l-1.9.06q-8.15,9.88-9.8,1l-2.91,1.15c2.29,2.34,3.11,5.29,1.69,8.32-2.37,5.11-9.43,4.87-12.34.46-1.26-1.93-3.14-7.24.39-8.59l5.14.16q1.69,3.36-.33,5.73c-3.89,6.5-12.8,2-12.14-4.81a1,1,0,0,0-1.9-.42q-1.22,4.53-2.45,9.06l1.76,0c-.37-1.47-.73-2.93-1.09-4.39-.27-1.11-1.95-.64-1.69.46Z"/>
            <g class="cls-4">
                <path d="M99.28,149.33l-1,.81A2,2,0,0,1,99,150C99.29,149.86,99.26,149.61,99.28,149.33Z" class="cls-5"/>
                <path d="M97.42,150.92l-.17.15-.08.2Z" class="cls-5"/>
                <path d="M96,152.63a3.47,3.47,0,0,0,.78-.8A2.22,2.22,0,0,0,96,152.63Z" class="cls-5"/>
                <path d="M97.43,151.58c-.2,0-.35-.07-.26-.3h0l-.39.56A1.86,1.86,0,0,1,97.43,151.58Z" class="cls-5"/>
                <path d="M97.43,151.58c.19,0,.43,0,.54,0A2.45,2.45,0,0,0,97.43,151.58Z" class="cls-5"/>
                <path d="M99.39,154.4c-.08.23-.71-.5-.87,0a14.12,14.12,0,0,1-1.47,2.48c-.13.45-1.38.2-1.52.66-.49.93-1.22,3.69-.27,2.54,1.38-1.79,2.25-3,3.53-4.57.93-1.41,1.72-2.88,2.78-4.26a5.77,5.77,0,0,1,1.09-.84c-.54.28-1.08.57-1.68.91C100.13,151.66,100.22,153.31,99.39,154.4Z" class="cls-5"/>
                <path d="M106.84,143.81l-.32.66a3.22,3.22,0,0,0-2.48,1.76l.65.08c.42-.42.3-.67-.23-.5a6.62,6.62,0,0,0,3.11-1.68C107.35,144,107.18,143.72,106.84,143.81Z" class="cls-5"/>
                <path d="M108.06,143.66l-.49.47.06.05.46-.52Z" class="cls-5"/>
                <path d="M93.4,156.61c-1.94,2.18-3.76,4.23-5.48,6.3,0,.27.1.52-.16.67a1.94,1.94,0,0,0-.65.29l-.76.9c-.07.12-.12.25-.18.37v0c0,.24.12.27.31.25a2,2,0,0,1,.52-.12c-.11,0-.33.09-.52.12a2,2,0,0,0-.58.35,3.68,3.68,0,0,1-.62.93,2.11,2.11,0,0,1,.62-.93l.28-.62,0-.2L84.53,167c-.1.18-.19.36-.26.5-.28.6-.51,1.22-1.12,1.28l-.29.39.12,0-.17.1-1.23,1.62c-.08.47-.12,1-.24,1.44l-.65.13a1.32,1.32,0,0,1,0,.9c.44-.17.88-.28,1.21-.44.64-.13-.29-1.37.76-1.34-1,0-.12,1.21-.76,1.34-.33.16-.77.27-1.21.44A2.81,2.81,0,0,1,79.21,175c.05-.93.77-1.32,1.49-1.59a1.32,1.32,0,0,0,0-.9l.65-.13c.12-.46.16-1,.24-1.44-.76,1.09-1.53,2.2-2.32,3.32-.87,1.35-1.77,2.65-2.53,4l-1.17,2c-.21.37-.33.6-.47.87l-.41.79c-.58,1.07-1,2.05-1.48,3s-.84,2-1.25,2.88c0,.17-.1,0-.15-.1l-.17-.27-.34-.56-.67-1.12-1.34-2.23-1.19-2.08c-.06-.12-.28-.46-.42-.7l-.48-.78-1-1.53-3.77-6.08a86.61,86.61,0,0,0-8.37-10.84,85.29,85.29,0,0,1-8.39-11.1c-2-3.19-7.36-7.5-10.12-9.72-4.63-1.88-5.41,2.88-5.42,3.19-.15,4.51,2.84,4.45,5.62,9.87-1-1.75-.12-1.68,1.18-.63a10.29,10.29,0,0,1,3.4,5.28c.59,3.15,2.64,5.56,5,7.91s5.07,4.65,6.79,7.44c.87,1.39,2.09,2.62,3.24,4.18.94,1.52,1.9,3,2.91,4.42.49.72,1,1.43,1.5,2.12l1.77,2.41c2.08,2.79,4.12,5.8,6.13,8.68s3.94,5.63,5.93,8.49c1.06-2.92,2.09-5.74,3.19-8.65q.83-2.18,1.67-4.36l.42-1.09.44-.95.88-1.9c.52-1.15,1-2.34,1.38-3.44q.31-.91.54-1.83c.3-1.23.57-2.43.94-3.56.66-1.57,2-2.86,2.75-4A32.89,32.89,0,0,0,88.49,169c-1,1.71-1.61,3.1-2.7,5-.74,1.3-.51-1.54-.15-2.51,0-.48,1.31-.44,1.36-.91A12.81,12.81,0,0,0,88,168c.07-.48.82.13.86-.11.59-1.23.3-2.78,1-3.32.52-.43,1-.82,1.48-1.17a4.3,4.3,0,0,0,.77-.82l.28-.72a2.7,2.7,0,0,1-1-.39c.28-.25.76-.51,1-.75-.28.24-.76.5-1,.75a2.7,2.7,0,0,0,1,.39,26.93,26.93,0,0,1,1.27-2.68c.49-.89,1-1.83,1.5-2.66l-.08,0a6.63,6.63,0,0,1-2.74,2.16c.5-.24.65,0,.31.46l-.66,0c.47-.94,1-1.89,2.12-2.14,0,0,.13-.47.21-.7.32-.14.53.08.76.2.15-.17.28-.35.42-.53a4.7,4.7,0,0,0-1.34.34C93.76,156.43,93.4,156.61,93.4,156.61Z" class="cls-5"/>
                <path d="M85.85,165.76c.06-.14.16-.31.26-.49L84.69,167C85.31,167,85.58,166.37,85.85,165.76Z" class="cls-5"/>
            </g>
            <g class="cls-4">
                <path d="M99.28,64.73l-1,.82a1.8,1.8,0,0,1,.7-.18C99.29,65.27,99.26,65,99.28,64.73Z" class="cls-5"/>
                <path d="M97.42,66.33l-.17.15-.08.19Z" class="cls-5"/>
                <path d="M96,68a3.51,3.51,0,0,0,.78-.81A2.34,2.34,0,0,0,96,68Z" class="cls-5"/>
                <path d="M97.43,67c-.2,0-.35-.07-.26-.31h0l-.39.56A1.66,1.66,0,0,1,97.43,67Z" class="cls-5"/>
                <path d="M97.43,67c.19,0,.43,0,.54,0A2,2,0,0,0,97.43,67Z" class="cls-5"/>
                <path d="M99.39,69.81c-.08.22-.71-.5-.87,0a13.86,13.86,0,0,1-1.47,2.49c-.13.45-1.38.2-1.52.66-.49.93-1.22,3.69-.27,2.53,1.38-1.78,2.25-3,3.53-4.57.93-1.4,1.72-2.88,2.78-4.25a5.83,5.83,0,0,1,1.09-.85c-.54.28-1.08.57-1.68.91C100.13,67.06,100.22,68.71,99.39,69.81Z" class="cls-5"/>
                <path d="M106.84,59.22l-.32.65A3.26,3.26,0,0,0,104,61.63l.65.09c.42-.42.3-.68-.23-.5a6.71,6.71,0,0,0,3.11-1.68C107.35,59.37,107.18,59.12,106.84,59.22Z" class="cls-5"/>
                <path d="M108.06,59.06l-.49.48.06.05.46-.53Z" class="cls-5"/>
                <path d="M93.4,72c-1.94,2.18-3.76,4.23-5.48,6.29,0,.28.1.53-.16.68a1.94,1.94,0,0,0-.65.28l-.76.9c-.07.12-.12.25-.18.38h0c0,.25.12.28.31.25a2.44,2.44,0,0,1,.52-.12c-.11,0-.33.1-.52.12a2,2,0,0,0-.58.35,3.51,3.51,0,0,1-.62.93,2.23,2.23,0,0,1,.62-.93l.28-.61,0-.21-1.68,2.1c-.1.18-.19.35-.26.5-.28.59-.51,1.21-1.12,1.28l-.29.38.12,0a.62.62,0,0,1-.17.1L81.58,86.3c-.08.47-.12,1-.24,1.43l-.65.14a1.3,1.3,0,0,1,0,.89c.44-.16.88-.28,1.21-.43.64-.13-.29-1.38.76-1.35-1,0-.12,1.22-.76,1.35-.33.15-.77.27-1.21.43a2.82,2.82,0,0,1-1.49,1.6c.05-.93.77-1.33,1.49-1.6a1.3,1.3,0,0,0,0-.89l.65-.14c.12-.45.16-1,.24-1.43l-2.32,3.32c-.87,1.34-1.77,2.65-2.53,4l-1.17,2c-.21.38-.33.6-.47.88l-.41.79c-.58,1.06-1,2-1.48,3s-.84,1.94-1.25,2.88c0,.16-.1,0-.15-.1l-.17-.28-.34-.55-.67-1.12L69.28,99l-1.19-2.08c-.06-.12-.28-.46-.42-.7l-.48-.77-1-1.54c-1.27-2-2.53-4.07-3.77-6.08a86.61,86.61,0,0,0-8.37-10.84A84.5,84.5,0,0,1,45.7,65.85c-2-3.2-7.36-7.5-10.12-9.72C31,54.24,30.17,59,30.16,59.31,30,63.82,33,63.77,35.78,69.19c-1-1.75-.12-1.68,1.18-.63a10.26,10.26,0,0,1,3.4,5.27C41,77,43,79.4,45.39,81.74s5.07,4.65,6.79,7.45c.87,1.38,2.09,2.61,3.24,4.17.94,1.52,1.9,3,2.91,4.42q.73,1.08,1.5,2.13l1.77,2.4c2.08,2.8,4.12,5.8,6.13,8.68l5.93,8.49c1.06-2.92,2.09-5.73,3.19-8.65l1.67-4.36.42-1.09.44-.95.88-1.89c.52-1.16,1-2.35,1.38-3.44.21-.61.39-1.23.54-1.84.3-1.23.57-2.43.94-3.55.66-1.58,2-2.86,2.75-4a33.39,33.39,0,0,0,2.62-5.26c-1,1.72-1.61,3.1-2.7,5-.74,1.29-.51-1.54-.15-2.52,0-.47,1.31-.43,1.36-.91a12.81,12.81,0,0,0,1-2.66c.07-.47.82.13.86-.1.59-1.23.3-2.78,1-3.32.52-.44,1-.83,1.48-1.17a4.62,4.62,0,0,0,.77-.82l.28-.73a2.53,2.53,0,0,1-1-.39c.28-.25.76-.5,1-.74-.28.24-.76.49-1,.74a2.53,2.53,0,0,0,1,.39,26.79,26.79,0,0,1,1.27-2.67c.49-.9,1-1.83,1.5-2.66l-.08,0A6.63,6.63,0,0,1,92.4,74c.5-.24.65,0,.31.45l-.66,0c.47-.94,1-1.89,2.12-2.14,0,0,.13-.47.21-.69.32-.15.53.07.76.2.15-.17.28-.35.42-.54a5.06,5.06,0,0,0-1.34.34A7.61,7.61,0,0,0,93.4,72Z" class="cls-5"/>
                <path d="M85.85,81.17a4.88,4.88,0,0,1,.26-.5c-.47.58-.94,1.17-1.42,1.75C85.31,82.37,85.58,81.77,85.85,81.17Z" class="cls-5"/>
            </g>
            <g class="cls-4">
                <path d="M99.28,233.92l-1,.82a1.8,1.8,0,0,1,.7-.18C99.29,234.46,99.26,234.2,99.28,233.92Z" class="cls-5"/>
                <path d="M97.42,235.52l-.17.15-.08.19Z" class="cls-5"/>
                <path d="M96,237.23a3.51,3.51,0,0,0,.78-.81A2.34,2.34,0,0,0,96,237.23Z" class="cls-5"/>
                <path d="M97.43,236.18c-.2,0-.35-.07-.26-.31h0l-.39.56A1.66,1.66,0,0,1,97.43,236.18Z" class="cls-5"/>
                <path d="M97.43,236.18c.19,0,.43-.05.54,0A2,2,0,0,0,97.43,236.18Z" class="cls-5"/>
                <path d="M99.39,239c-.08.22-.71-.5-.87-.05a13.86,13.86,0,0,1-1.47,2.49c-.13.45-1.38.2-1.52.66-.49.93-1.22,3.69-.27,2.53,1.38-1.78,2.25-3,3.53-4.57.93-1.4,1.72-2.88,2.78-4.25a5.83,5.83,0,0,1,1.09-.85c-.54.28-1.08.57-1.68.91C100.13,236.25,100.22,237.9,99.39,239Z" class="cls-5"/>
                <path d="M106.84,228.41l-.32.65a3.26,3.26,0,0,0-2.48,1.76l.65.09c.42-.42.3-.68-.23-.5a6.71,6.71,0,0,0,3.11-1.68C107.35,228.56,107.18,228.31,106.84,228.41Z" class="cls-5"/>
                <path d="M108.06,228.25l-.49.48.06.05.46-.53Z" class="cls-5"/>
                <path d="M93.4,241.21c-1.94,2.18-3.76,4.23-5.48,6.29,0,.28.1.53-.16.68a1.94,1.94,0,0,0-.65.28l-.76.9c-.07.12-.12.25-.18.38h0c0,.25.12.28.31.25a2.44,2.44,0,0,1,.52-.12c-.11,0-.33.1-.52.12a2,2,0,0,0-.58.35,3.51,3.51,0,0,1-.62.93,2.23,2.23,0,0,1,.62-.93l.28-.61,0-.21-1.68,2.1c-.1.18-.19.35-.26.5-.28.59-.51,1.21-1.12,1.28l-.29.38.12,0a.62.62,0,0,1-.17.1l-1.23,1.63c-.08.47-.12,1-.24,1.43l-.65.14a1.3,1.3,0,0,1,0,.89c.44-.16.88-.28,1.21-.43.64-.13-.29-1.38.76-1.35-1,0-.12,1.22-.76,1.35-.33.15-.77.27-1.21.43a2.82,2.82,0,0,1-1.49,1.6c.05-.93.77-1.33,1.49-1.6a1.3,1.3,0,0,0,0-.89l.65-.14c.12-.45.16-1,.24-1.43l-2.32,3.32c-.87,1.34-1.77,2.65-2.53,4l-1.17,2c-.21.38-.33.6-.47.88l-.41.79c-.58,1.06-1,2-1.48,3s-.84,1.94-1.25,2.88c0,.16-.1,0-.15-.1l-.17-.28-.34-.55-.67-1.12-1.34-2.24-1.19-2.08c-.06-.12-.28-.46-.42-.7l-.48-.77-1-1.54C65,261,63.7,259,62.46,257a86.61,86.61,0,0,0-8.37-10.84A84.5,84.5,0,0,1,45.7,235c-2-3.2-7.36-7.5-10.12-9.72-4.63-1.89-5.41,2.88-5.42,3.18C30,233,33,233,35.78,238.38c-1-1.75-.12-1.68,1.18-.63a10.26,10.26,0,0,1,3.4,5.27c.59,3.16,2.64,5.57,5,7.91s5.07,4.65,6.79,7.45c.87,1.38,2.09,2.61,3.24,4.17.94,1.52,1.9,3,2.91,4.42q.73,1.08,1.5,2.13l1.77,2.4c2.08,2.8,4.12,5.8,6.13,8.68l5.93,8.49c1.06-2.92,2.09-5.73,3.19-8.65l1.67-4.36.42-1.09.44-.95.88-1.89c.52-1.16,1-2.35,1.38-3.44.21-.61.39-1.23.54-1.84.3-1.23.57-2.43.94-3.55.66-1.58,2-2.86,2.75-4a33.39,33.39,0,0,0,2.62-5.26c-1,1.72-1.61,3.1-2.7,5-.74,1.29-.51-1.54-.15-2.52,0-.47,1.31-.43,1.36-.91a12.6,12.6,0,0,0,1-2.66c.07-.47.82.13.86-.1.59-1.23.3-2.78,1-3.32.52-.44,1-.83,1.48-1.17a4.62,4.62,0,0,0,.77-.82l.28-.73a2.53,2.53,0,0,1-1-.39c.28-.25.76-.5,1-.74-.28.24-.76.49-1,.74a2.53,2.53,0,0,0,1,.39,26.79,26.79,0,0,1,1.27-2.67c.49-.9,1-1.83,1.5-2.66l-.08,0a6.63,6.63,0,0,1-2.74,2.16c.5-.24.65,0,.31.45l-.66,0c.47-.94,1-1.89,2.12-2.14,0,0,.13-.47.21-.69.32-.15.53.07.76.2.15-.17.28-.35.42-.54a5.48,5.48,0,0,0-1.34.34A7.61,7.61,0,0,0,93.4,241.21Z" class="cls-5"/>
                <path d="M85.85,250.36a4.88,4.88,0,0,1,.26-.5c-.47.58-.94,1.17-1.42,1.75C85.31,251.56,85.58,251,85.85,250.36Z" class="cls-5"/>
            </g>
            <g class="cls-4">
                <path d="M99.28,322.52l-1,.81a2,2,0,0,1,.7-.18C99.29,323.05,99.26,322.8,99.28,322.52Z" class="cls-5"/>
                <path d="M97.42,324.11l-.17.15-.08.2Z" class="cls-5"/>
                <path d="M96,325.82a3.47,3.47,0,0,0,.78-.8A2.22,2.22,0,0,0,96,325.82Z" class="cls-5"/>
                <path d="M97.43,324.77c-.2,0-.35-.07-.26-.3h0l-.39.56A1.86,1.86,0,0,1,97.43,324.77Z" class="cls-5"/>
                <path d="M97.43,324.77c.19,0,.43,0,.54,0A2.45,2.45,0,0,0,97.43,324.77Z" class="cls-5"/>
                <path d="M99.39,327.59c-.08.23-.71-.5-.87,0A14.12,14.12,0,0,1,97.05,330c-.13.45-1.38.2-1.52.66-.49.93-1.22,3.69-.27,2.54,1.38-1.79,2.25-3,3.53-4.57.93-1.41,1.72-2.88,2.78-4.26a5.77,5.77,0,0,1,1.09-.84c-.54.28-1.08.57-1.68.91C100.13,324.85,100.22,326.5,99.39,327.59Z" class="cls-5"/>
                <path d="M106.84,317l-.32.66a3.22,3.22,0,0,0-2.48,1.76l.65.08c.42-.42.3-.67-.23-.5a6.62,6.62,0,0,0,3.11-1.68C107.35,317.16,107.18,316.91,106.84,317Z" class="cls-5"/>
                <path d="M108.06,316.85l-.49.47.06.05.46-.52Z" class="cls-5"/>
                <path d="M93.4,329.8c-1.94,2.18-3.76,4.23-5.48,6.3,0,.27.1.52-.16.67a1.94,1.94,0,0,0-.65.29l-.76.9c-.07.12-.12.25-.18.37v0c0,.24.12.28.31.25a2,2,0,0,1,.52-.12c-.11,0-.33.09-.52.12a2,2,0,0,0-.58.35,3.68,3.68,0,0,1-.62.93,2.11,2.11,0,0,1,.62-.93l.28-.62,0-.2-1.68,2.09c-.1.18-.19.36-.26.5-.28.6-.51,1.22-1.12,1.28l-.29.39.12,0-.17.1-1.23,1.62c-.08.47-.12,1-.24,1.44l-.65.13a1.32,1.32,0,0,1,0,.9c.44-.17.88-.28,1.21-.44.64-.13-.29-1.37.76-1.34-1,0-.12,1.21-.76,1.34-.33.16-.77.27-1.21.44a2.81,2.81,0,0,1-1.49,1.59c.05-.93.77-1.32,1.49-1.59a1.32,1.32,0,0,0,0-.9l.65-.13c.12-.46.16-1,.24-1.44l-2.32,3.33c-.87,1.34-1.77,2.64-2.53,4l-1.17,2c-.21.37-.33.6-.47.87l-.41.79c-.58,1.07-1,2.05-1.48,3S72.36,360.09,72,361c0,.17-.1,0-.15-.1l-.17-.27-.34-.56L70.62,359l-1.34-2.23-1.19-2.08c-.06-.12-.28-.46-.42-.7l-.48-.78-1-1.53-3.77-6.08a86.61,86.61,0,0,0-8.37-10.84,85.29,85.29,0,0,1-8.39-11.1c-2-3.19-7.36-7.5-10.12-9.72-4.63-1.88-5.41,2.88-5.42,3.19C30,321.61,33,321.55,35.78,327c-1-1.75-.12-1.68,1.18-.63a10.29,10.29,0,0,1,3.4,5.28c.59,3.15,2.64,5.56,5,7.91s5.07,4.65,6.79,7.44c.87,1.39,2.09,2.62,3.24,4.18.94,1.52,1.9,3,2.91,4.42.49.72,1,1.43,1.5,2.12l1.77,2.41c2.08,2.8,4.12,5.8,6.13,8.68s3.94,5.63,5.93,8.49c1.06-2.92,2.09-5.74,3.19-8.65q.83-2.17,1.67-4.36l.42-1.09.44-.95.88-1.9c.52-1.15,1-2.34,1.38-3.44q.31-.92.54-1.83c.3-1.23.57-2.43.94-3.56.66-1.57,2-2.86,2.75-4a32.89,32.89,0,0,0,2.62-5.25c-1,1.71-1.61,3.1-2.7,5-.74,1.3-.51-1.54-.15-2.51,0-.48,1.31-.44,1.36-.91a12.81,12.81,0,0,0,1-2.66c.07-.48.82.13.86-.11.59-1.23.3-2.78,1-3.32.52-.43,1-.82,1.48-1.17a4.3,4.3,0,0,0,.77-.82l.28-.72a2.7,2.7,0,0,1-1-.39c.28-.25.76-.51,1-.75-.28.24-.76.5-1,.75a2.7,2.7,0,0,0,1,.39,26.93,26.93,0,0,1,1.27-2.68c.49-.89,1-1.83,1.5-2.66l-.08,0a6.63,6.63,0,0,1-2.74,2.16c.5-.24.65,0,.31.46l-.66,0c.47-.94,1-1.89,2.12-2.14,0,0,.13-.47.21-.7.32-.14.53.08.76.2.15-.17.28-.35.42-.53a4.7,4.7,0,0,0-1.34.34C93.76,329.62,93.4,329.8,93.4,329.8Z" class="cls-5"/>
                <path d="M85.85,339c.06-.14.16-.31.26-.49l-1.42,1.74C85.31,340.15,85.58,339.56,85.85,339Z" class="cls-5"/>
            </g>
            <g class="cls-4">
                <path d="M99.28,412.11l-1,.82a1.8,1.8,0,0,1,.7-.18C99.29,412.65,99.26,412.39,99.28,412.11Z" class="cls-5"/>
                <path d="M97.42,413.71l-.17.15-.08.19Z" class="cls-5"/>
                <path d="M96,415.42a3.51,3.51,0,0,0,.78-.81A2.34,2.34,0,0,0,96,415.42Z" class="cls-5"/>
                <path d="M97.43,414.37c-.2,0-.35-.07-.26-.31h0l-.39.56A1.84,1.84,0,0,1,97.43,414.37Z" class="cls-5"/>
                <path d="M97.43,414.37c.19,0,.43-.05.54,0A2,2,0,0,0,97.43,414.37Z" class="cls-5"/>
                <path d="M99.39,417.19c-.08.22-.71-.5-.87-.05a13.86,13.86,0,0,1-1.47,2.49c-.13.45-1.38.2-1.52.66-.49.93-1.22,3.69-.27,2.53,1.38-1.78,2.25-3,3.53-4.57.93-1.4,1.72-2.88,2.78-4.25a5.83,5.83,0,0,1,1.09-.85c-.54.28-1.08.57-1.68.91C100.13,414.44,100.22,416.09,99.39,417.19Z" class="cls-5"/>
                <path d="M106.84,406.6l-.32.65A3.26,3.26,0,0,0,104,409l.65.09c.42-.42.3-.68-.23-.5a6.71,6.71,0,0,0,3.11-1.68C107.35,406.75,107.18,406.5,106.84,406.6Z" class="cls-5"/>
                <path d="M108.06,406.44l-.49.48.06.05.46-.53Z" class="cls-5"/>
                <path d="M93.4,419.4c-1.94,2.18-3.76,4.23-5.48,6.29,0,.28.1.53-.16.68a1.94,1.94,0,0,0-.65.28l-.76.9c-.07.12-.12.25-.18.38h0c0,.25.12.28.31.25a2.44,2.44,0,0,1,.52-.12c-.11,0-.33.1-.52.12a2,2,0,0,0-.58.35,3.51,3.51,0,0,1-.62.93,2.23,2.23,0,0,1,.62-.93l.28-.61,0-.21-1.68,2.1c-.1.18-.19.35-.26.5-.28.59-.51,1.21-1.12,1.28l-.29.38.12,0a.62.62,0,0,1-.17.1l-1.23,1.63c-.08.47-.12,1-.24,1.43l-.65.14a1.3,1.3,0,0,1,0,.89c.44-.16.88-.28,1.21-.43.64-.13-.29-1.38.76-1.35-1,0-.12,1.22-.76,1.35-.33.15-.77.27-1.21.43a2.82,2.82,0,0,1-1.49,1.6c.05-.93.77-1.33,1.49-1.6a1.3,1.3,0,0,0,0-.89l.65-.14c.12-.45.16-1,.24-1.43L79.26,437c-.87,1.34-1.77,2.65-2.53,4l-1.17,2c-.21.38-.33.6-.47.88l-.41.79c-.58,1.06-1,2-1.48,3s-.84,1.94-1.25,2.88c0,.16-.1,0-.15-.1l-.17-.28-.34-.55-.67-1.12-1.34-2.24-1.19-2.08c-.06-.12-.28-.46-.42-.7l-.48-.77-1-1.54c-1.27-2.05-2.53-4.07-3.77-6.08a86.61,86.61,0,0,0-8.37-10.84,84.5,84.5,0,0,1-8.39-11.09c-2-3.2-7.36-7.5-10.12-9.72-4.63-1.89-5.41,2.88-5.42,3.18-.15,4.51,2.84,4.46,5.62,9.88-1-1.75-.12-1.68,1.18-.63a10.26,10.26,0,0,1,3.4,5.27c.59,3.16,2.64,5.57,5,7.91s5.07,4.65,6.79,7.45c.87,1.38,2.09,2.61,3.24,4.17.94,1.52,1.9,3,2.91,4.42q.73,1.08,1.5,2.13l1.77,2.4c2.08,2.8,4.12,5.8,6.13,8.68l5.93,8.49c1.06-2.92,2.09-5.73,3.19-8.65l1.67-4.36.42-1.09.44-.95c.29-.63.58-1.26.88-1.89.52-1.16,1-2.35,1.38-3.44.21-.61.39-1.23.54-1.84.3-1.23.57-2.43.94-3.55.66-1.58,2-2.86,2.75-4a33.39,33.39,0,0,0,2.62-5.26c-1,1.72-1.61,3.1-2.7,5-.74,1.29-.51-1.54-.15-2.52,0-.47,1.31-.43,1.36-.91a12.6,12.6,0,0,0,1-2.66c.07-.47.82.13.86-.1.59-1.23.3-2.78,1-3.32.52-.44,1-.83,1.48-1.17a4.62,4.62,0,0,0,.77-.82l.28-.73a2.53,2.53,0,0,1-1-.39c.28-.25.76-.5,1-.74-.28.24-.76.49-1,.74a2.53,2.53,0,0,0,1,.39,26.79,26.79,0,0,1,1.27-2.67c.49-.9,1-1.83,1.5-2.66l-.08,0a6.63,6.63,0,0,1-2.74,2.16c.5-.24.65,0,.31.45l-.66,0c.47-.94,1-1.89,2.12-2.14,0,0,.13-.47.21-.69.32-.15.53.07.76.2.15-.17.28-.35.42-.54a5.48,5.48,0,0,0-1.34.34A7.61,7.61,0,0,0,93.4,419.4Z" class="cls-5"/>
                <path d="M85.85,428.55a4.88,4.88,0,0,1,.26-.5c-.47.58-.94,1.17-1.42,1.75C85.31,429.75,85.58,429.15,85.85,428.55Z" class="cls-5"/>
            </g>
        </g>
    </g>
</svg>
